<svg width="502" height="502" viewBox="0 0 502 502" xmlns="http://www.w3.org/2000/svg" xmlns:xlink="http://www.w3.org/1999/xlink"><title>server-max</title><defs><circle id="a" cx="250" cy="250" r="250"/></defs><g fill="none" fill-rule="evenodd"><mask id="b" fill="#fff"><use xlink:href="#a"/></mask><use fill="#F2D700" xlink:href="#a"/><path d="M154.58 481.636l-77.754-81.21 342.426-303.46 68.76 74.72c50.865 107.272-31.815 411.237-333.432 309.95z" fill-opacity=".2" fill="#4A4A4A" mask="url(#b)"/><g mask="url(#b)"><path d="M83.48 389.78V124.893h330.526V389.78H83.48z" fill="#FFF"/><path d="M221.28 301.816l-75.752-32.84v-18.22l75.752-32.832v21.462l-52.78 20.337 52.78 20.78v21.313zM268.123 216.626l-21.09 86.827c-.703 2.857-1.315 5.12-1.842 6.777-.527 1.658-1.326 2.955-2.406 3.873-1.08.93-2.65 1.394-4.71 1.394-5.115 0-7.678-2.215-7.678-6.623 0-1.157.5-4.044 1.504-8.66l21.01-86.828c1.106-4.616 2.16-7.78 3.163-9.484 1.004-1.707 2.96-2.562 5.875-2.562 2.51 0 4.43.604 5.757 1.81 1.33 1.205 2 2.863 2 4.97 0 1.555-.532 4.39-1.582 8.506zM354.494 268.977l-75.75 32.987V280.65l52.938-20.78-52.94-20.485v-21.16l75.752 32.68v18.072z" fill="#4A4A4A"/><path d="M90.243 95.574c-14.37 0-14.37 6.08-14.37 16.672v276.05c0 13.763 0 13.763 11.834 13.765h324.608c11.836 0 11.836 0 11.836-13.763V112.245c0-10.592 0-16.67-14.37-16.67H90.242zm-1.69 294.176V126.006h322.072V389.75H88.553z" fill="#D3D3D3"/><g><path d="M147.79 111.197c0-4.663 3.795-8.454 8.454-8.454 4.66 0 8.454 3.79 8.454 8.454 0 4.662-3.795 8.453-8.454 8.453-4.66 0-8.453-3.79-8.453-8.453z" fill="#17CB37"/><path d="M130.852 102.743c4.66 0 8.453 3.79 8.453 8.454 0 4.662-3.794 8.453-8.453 8.453-4.662 0-8.454-3.79-8.454-8.453 0-4.662 3.792-8.454 8.454-8.454z" fill="#FFBE06"/><path d="M113.913 111.317c0 4.727-3.846 8.572-8.57 8.572-4.73 0-8.574-3.846-8.574-8.573-.002-4.73 3.844-8.574 8.572-8.574 4.725 0 8.57 3.845 8.57 8.574z" fill="#FF5E52"/></g></g></g></svg>