<svg width="1540" height="866pt" viewBox="0 0 1155 866" xmlns="http://www.w3.org/2000/svg"><path fill="#1c1417" stroke="#1c1417" d="M0 0h335.19c-8.32 12.6-17.84 24.37-26.48 36.76a28799.48 28799.48 0 0 0-52.81 73.1c-3.02 3.95-5.34 9.34-10.74 10.4-20.14 5.55-40.37 10.77-60.52 16.29-5.22 1.12-10.25 3.36-15.63 3.6-4.49-1.35-7.81-4.92-11.47-7.67-10-8.38-21.02-15.45-31.03-23.82-12.58-9.45-24.94-19.19-37.71-28.38C59.22 57.7 29.59 35.16 0 12.58V0z"/><path fill="#33171d" stroke="#33171d" d="M335.19 0h26.84c9.21 20.3 17.59 40.97 26.49 61.41 13.52 31.52 26.75 63.15 40.41 94.6 3.27 6.96 5.74 14.26 8.93 21.26 3.52 7.58 6.57 15.36 9.83 23.05 1.96 5.53 5.42 11.25 3.53 17.28-40.5-19.82-81.28-39.07-121.86-58.73-26.94-12.8-53.66-26.04-80.82-38.38-23.15 33.52-46.16 67.14-69.34 100.64-3.14 4.17-5.62 8.82-9.11 12.73-1.97-5.78-.88-11.92-1.1-17.89-.13-24.87.32-49.76-.22-74.61-5.65-.53-11.35-.16-16.98-.96-6.85-.96-13.79.22-20.64-.75-12.12-1.6-24.4.33-36.53-1.18-9.51-1.17-19.1.11-28.62-.67-13.61-1.64-27.34-.27-40.99-.92-7.88-.84-15.83-1.34-23.75-.65-.34 3.31-.41 6.63-.41 9.95l-.85-.62V12.58c29.59 22.58 59.22 45.12 88.8 67.7 12.77 9.19 25.13 18.93 37.71 28.38 10.01 8.37 21.03 15.44 31.03 23.82 3.66 2.75 6.98 6.32 11.47 7.67 5.38-.24 10.41-2.48 15.63-3.6 20.15-5.52 40.38-10.74 60.52-16.29 5.4-1.06 7.72-6.45 10.74-10.4 17.57-24.39 35.16-48.76 52.81-73.1C317.35 24.37 326.87 12.6 335.19 0z"/><path fill="#451924" stroke="#451924" d="M362.03 0h17.71c13.27 12.54 27.33 24.23 40.95 36.39 60.6 53.37 121.14 106.79 181.81 160.07 14.72 12.95 29.36 25.99 43.99 39.03 2.15 1.95 4.52 3.62 6.92 5.25l.52.33c-15.83-1.75-31.56-4.33-47.34-6.44-29.54-4.2-59.09-8.32-88.62-12.52-5.16-.7-10.28-1.64-15.48-1.98-15.49-.29-30.99.19-46.49-.08-1.63-.75-3.2-1.61-4.78-2.45 1.89-6.03-1.57-11.75-3.53-17.28-3.26-7.69-6.31-15.47-9.83-23.05-3.19-7-5.66-14.3-8.93-21.26-13.66-31.45-26.89-63.08-40.41-94.6-8.9-20.44-17.28-41.11-26.49-61.41z"/><path fill="#20141d" stroke="#20141d" d="M379.74 0h208.87c7.01.46 14.02-.75 20.99.43 3.39-.48 6.58.67 9.89 1.03 5.33-.9 10.36 1.6 15.7.93 3.85 1.76 8.12.26 11.98 1.84 2.69.64 5.56-.52 8.21.6 3.54 1.49 7.44-.37 10.99 1.02 3.21 1.38 6.77-.31 10.02.96 3.2 1.27 6.73-.15 9.95 1.05 2.93 1.24 6.19-.19 9.14 1.03 3.51 1.27 7.33-.32 10.88.85 2.92 1.17 6.14.11 9.08 1.18 3.2 1.21 6.67-.24 9.92.67 3.96 1.5 8.28.11 12.23 1.78 5.34-.78 10.34 1.46 15.66 1.05 4.42 1.79 9.25.06 13.64 1.97 3.5-.27 6.87.32 10.28 1.03 5.14-.87 9.97 1.28 15.09 1.05 4.2 1.82 8.81.01 13.04 1.62 2.66.73 5.54-.25 8.16.87 3.55 1.22 7.41-.49 10.96.91 3.23 1.27 6.78-.26 10.03.94 3.2 1.29 6.72-.12 9.96 1.01 3.17 1.36 6.75-.29 9.9 1.21 2.58 1.03 5.44-.35 8.03.8 3.58 1.35 7.48-.3 11.09.93 2.89 1.21 6.08.01 9 1.01 3.18 1.47 6.76-.26 10.01 1.02 3.19 1.33 6.71-.16 9.94.93 3.21 1.42 6.79-.11 10.04 1.14 3.21 1.2 6.7-.21 9.93.95 3.96 1.47 8.39-.59 12.23 1.59 3.58-.21 7.14-.28 10.55 1.09 5.18-.98 10.04 1.48 15.23.96 3.52 1.56 7.43.25 10.97 1.63 3.31.93 6.86-.52 10.17.65 3.49 1.39 7.37-.19 10.88 1.26 2.62.88 5.49-.21 8.11.81 3.53 1.43 7.44-.33 11 1.02 3.54 1.46 7.51-.49 11.03 1.16 3.42 1.68 8.55-2.14 10.45 2.34-9.16 3.71-17.42 9.17-26.34 13.36-6.44 3.09-12.54 6.82-18.93 10-5.31 2.67-10.71 5.19-15.88 8.13-8.82 5.04-18.18 9.05-27.02 14.05-8.16 4.63-16.81 8.35-24.98 12.97-9.04 5.11-18.57 9.27-27.62 14.35-8.41 4.71-17.27 8.56-25.63 13.34-7.75 4.44-16.03 7.85-23.76 12.32-8.62 4.88-17.74 8.81-26.37 13.67-8.37 4.77-17.23 8.61-25.63 13.32-8.65 4.85-17.73 8.87-26.4 13.69-9.65 5.41-19.79 9.88-29.38 15.41-8.6 4.39-17.3 8.61-25.71 13.36-18.78 9.21-36.95 19.61-55.91 28.45-2.4-1.63-4.77-3.3-6.92-5.25-14.63-13.04-29.27-26.08-43.99-39.03-60.67-53.28-121.21-106.7-181.81-160.07C407.07 24.23 393.01 12.54 379.74 0z"/><path fill="#28355d" stroke="#28355d" d="M588.61 0h549.19c.59 4.73-.77 9.38-1.37 14.03-6 37.62-11.81 75.27-17.9 112.88-1.16 6.62-1.36 13.35-1.64 20.04-.28 2.29 1.67 4.34.93 6.59-1.11 3.88-3.22 8.04-1.55 12.03-1.98 4.65 1.02 9.84-1.45 14.32.08 3.01 1.61 6.09.37 9.09-1.28 3.31-1.86 6.81-1.98 10.35.31.71.62 1.41.96 2.14-1.4 2.02-1.45 4.38-1.43 6.73-1.13 2.82-.71 5.98-1.97 8.76.75-.95 1.55-1.87 2.37-2.78.3 3.98-.23 7.93-2.84 11.07.4.35.82.7 1.26 1.04-1.26 3.69-.74 7.52-.24 11.28-.64.96-1 2.06-1.24 3.17-1.21 3.01 1.27 6.27-.39 9.14-1.19 2.18-.4 4.61-.29 6.91-1.32 2.69-2.7 6.08-.47 8.68-2.84 2.72-.23 6.71-1.56 9.97-1.25 3.3-1.13 6.8-.91 10.25.31 3.79-2.91 7.63-.45 11.19-.19 1.6-1.1 3.07-1.64 4.59.47.74.96 1.5 1.46 2.26-.8 2.27-2.23 4.49-1.66 6.99.54 3.11-2.06 5.77-1.47 8.89.76 3.56-.86 7.1.02 10.64.67 1.95-1.28 3.59-.66 5.5.26 1.91 1.47 4.48-.7 5.72l-1.87-1.07c.48 1.25 1 2.51 1.57 3.74-.86 2.86-.27 5.88.3 8.74-1.96.84-1.19 2.24-.41 3.69-1.05 3.26-2.05 6.66-.91 10.07.81 1.67-.87 2.68-1.5 3.98-.32 2.44 1.32 4.92.36 7.35-.72 1.87-1.58 3.82-1.04 5.87.61 2.41-.67 4.65-1.22 6.94-.1 2.68 1.36 5.17 1.29 7.87-.02 1.95-1.83 3.17-2.24 4.99.38 1.97 1.99 3.78 1.49 5.91-.67 2.75-2.46 5.2-2.57 8.09-.18 2.47.56 4.86.7 7.31-.42 1.62-1.32 3.07-1.75 4.69-.52 3.11 1.16 6.25.01 9.3-1.54 4.46-1.03 9.19-1.83 13.77-.42 4.34.91 8.68.36 12.97a16.332 16.332 0 0 1-3.43-4.74c-3.05-22.9-6.96-45.68-9.84-68.59-.19-2.64-.64-5.25-1.27-7.81l-.48-1.44c-2.32-5.72-2.24-11.96-3.29-17.94-14.24-104.07-28.38-208.15-42.83-312.19-.22-2-.16-4.02.01-6.03.5-.65 1.5-1.96 2-2.62-1.9-4.48-7.03-.66-10.45-2.34-3.52-1.65-7.49.3-11.03-1.16-3.56-1.35-7.47.41-11-1.02-2.62-1.02-5.49.07-8.11-.81-3.51-1.45-7.39.13-10.88-1.26-3.31-1.17-6.86.28-10.17-.65-3.54-1.38-7.45-.07-10.97-1.63-5.19.52-10.05-1.94-15.23-.96-3.41-1.37-6.97-1.3-10.55-1.09-3.84-2.18-8.27-.12-12.23-1.59-3.23-1.16-6.72.25-9.93-.95-3.25-1.25-6.83.28-10.04-1.14-3.23-1.09-6.75.4-9.94-.93-3.25-1.28-6.83.45-10.01-1.02-2.92-1-6.11.2-9-1.01-3.61-1.23-7.51.42-11.09-.93-2.59-1.15-5.45.23-8.03-.8-3.15-1.5-6.73.15-9.9-1.21-3.24-1.13-6.76.28-9.96-1.01-3.25-1.2-6.8.33-10.03-.94-3.55-1.4-7.41.31-10.96-.91-2.62-1.12-5.5-.14-8.16-.87-4.23-1.61-8.84.2-13.04-1.62-5.12.23-9.95-1.92-15.09-1.05-3.41-.71-6.78-1.3-10.28-1.03-4.39-1.91-9.22-.18-13.64-1.97-5.32.41-10.32-1.83-15.66-1.05-3.95-1.67-8.27-.28-12.23-1.78-3.25-.91-6.72.54-9.92-.67-2.94-1.07-6.16-.01-9.08-1.18-3.55-1.17-7.37.42-10.88-.85-2.95-1.22-6.21.21-9.14-1.03-3.22-1.2-6.75.22-9.95-1.05-3.25-1.27-6.81.42-10.02-.96-3.55-1.39-7.45.47-10.99-1.02-2.65-1.12-5.52.04-8.21-.6-3.86-1.58-8.13-.08-11.98-1.84-5.34.67-10.37-1.83-15.7-.93-3.31-.36-6.5-1.51-9.89-1.03-6.97-1.18-13.98.03-20.99-.43z"/><path fill="#2b3b68" stroke="#2b3b68" d="M1137.8 0h17.2v267.39c-1.66 5.41-1.09 11.08-.97 16.63-.23 37.99-.16 75.98-.26 113.96-.07 5.16.56 10.46-.99 15.47-.81 2.84-1.91 5.79-1.25 8.78.35 1.66.42 3.37.05 5.03-2.45 8.47-.19 17.38-1.25 26.02-.65 3.77-.64 8.32-3.96 10.89-.66-11.77.14-23.59-.69-35.35-1.25-14.92-.2-29.92-.9-44.86-1.08-11.36-.57-22.79-1.1-34.18-1.27 2.93-1.7 6.09-1.61 9.25-.65 9-1.19 18.01-2.41 26.96-.6 3.3 1.01 6.62.06 9.88-2.33 7.7-1.89 15.84-2.94 23.75-.69 11.69-1.97 23.35-2.41 35.04-1.69 5.8-1.01 11.79-.55 17.69-.6-.23-1.19-.45-1.77-.66 1.31 6.28-1.48 12.31-.9 18.61-1.05 7.3-1.56 14.65-1.77 22.02-1.5 7.75-.48 15.69-1.98 23.43-.43 8.11-1.02 16.25-2.32 24.28a86.69 86.69 0 0 0-.73 14.13c.46 5.14-2.35 9.89-1.88 15.04.41 5.73-1.45 11.33-.95 17.06.29 4.37-.72 8.67-1.22 12.99-.59 7.32-2.06 14.57-2.04 21.95.08 3.5-.49 6.97-1.39 10.36-9.41-63.54-18.92-127.06-28.2-190.62.84 1.77 2.01 3.37 3.43 4.74.55-4.29-.78-8.63-.36-12.97.8-4.58.29-9.31 1.83-13.77 1.15-3.05-.53-6.19-.01-9.3.43-1.62 1.33-3.07 1.75-4.69-.14-2.45-.88-4.84-.7-7.31.11-2.89 1.9-5.34 2.57-8.09.5-2.13-1.11-3.94-1.49-5.91.41-1.82 2.22-3.04 2.24-4.99.07-2.7-1.39-5.19-1.29-7.87.55-2.29 1.83-4.53 1.22-6.94-.54-2.05.32-4 1.04-5.87.96-2.43-.68-4.91-.36-7.35.63-1.3 2.31-2.31 1.5-3.98-1.14-3.41-.14-6.81.91-10.07-.78-1.45-1.55-2.85.41-3.69-.57-2.86-1.16-5.88-.3-8.74-.57-1.23-1.09-2.49-1.57-3.74l1.87 1.07c2.17-1.24.96-3.81.7-5.72-.62-1.91 1.33-3.55.66-5.5-.88-3.54.74-7.08-.02-10.64-.59-3.12 2.01-5.78 1.47-8.89-.57-2.5.86-4.72 1.66-6.99-.5-.76-.99-1.52-1.46-2.26.54-1.52 1.45-2.99 1.64-4.59-2.46-3.56.76-7.4.45-11.19-.22-3.45-.34-6.95.91-10.25 1.33-3.26-1.28-7.25 1.56-9.97-2.23-2.6-.85-5.99.47-8.68-.11-2.3-.9-4.73.29-6.91 1.66-2.87-.82-6.13.39-9.14.24-1.11.6-2.21 1.24-3.17-.5-3.76-1.02-7.59.24-11.28-.44-.34-.86-.69-1.26-1.04 2.61-3.14 3.14-7.09 2.84-11.07-.82.91-1.62 1.83-2.37 2.78 1.26-2.78.84-5.94 1.97-8.76-.02-2.35.03-4.71 1.43-6.73-.34-.73-.65-1.43-.96-2.14.12-3.54.7-7.04 1.98-10.35 1.24-3-.29-6.08-.37-9.09 2.47-4.48-.53-9.67 1.45-14.32-1.67-3.99.44-8.15 1.55-12.03.74-2.25-1.21-4.3-.93-6.59.28-6.69.48-13.42 1.64-20.04 6.09-37.61 11.9-75.26 17.9-112.88.6-4.65 1.96-9.3 1.37-14.03z"/><path fill="#2a192c" stroke="#2a192c" d="M1006.63 57.68c8.92-4.19 17.18-9.65 26.34-13.36-.5.66-1.5 1.97-2 2.62-1 1.04-2.15 2.01-2.58 3.43-24.35 61.84-48.97 123.59-73.26 185.46-16.39.5-32.8.11-49.17.96-18.33.38-36.68.07-55 1-35.33.21-70.63 1.48-105.97 1.51-21.97 1.17-44 .37-65.97 1.54-8.11.15-16.24-.31-24.33.51l-.76-.28-.52-.33c18.96-8.84 37.13-19.24 55.91-28.45 8.41-4.75 17.11-8.97 25.71-13.36 9.59-5.53 19.73-10 29.38-15.41 8.67-4.82 17.75-8.84 26.4-13.69 8.4-4.71 17.26-8.55 25.63-13.32 8.63-4.86 17.75-8.79 26.37-13.67 7.73-4.47 16.01-7.88 23.76-12.32 8.36-4.78 17.22-8.63 25.63-13.34 9.05-5.08 18.58-9.24 27.62-14.35 8.17-4.62 16.82-8.34 24.98-12.97 8.84-5 18.2-9.01 27.02-14.05 5.17-2.94 10.57-5.46 15.88-8.13 6.39-3.18 12.49-6.91 18.93-10z"/><path fill="#373d72" stroke="#373d72" d="M1028.39 50.37c.43-1.42 1.58-2.39 2.58-3.43-.17 2.01-.23 4.03-.01 6.03 14.45 104.04 28.59 208.12 42.83 312.19 1.05 5.98.97 12.22 3.29 17.94-.46-.09-1.39-.28-1.85-.37-16.92-13.62-34.4-26.51-51.49-39.91-12.08-9.3-23.97-18.86-36.29-27.84-3.63-10.84-8.62-21.15-12.59-31.86-6.71-15.43-12.3-31.34-19.49-46.56l-.24-.73c24.29-61.87 48.91-123.62 73.26-185.46z"/><path fill="#5e1d2d" stroke="#5e1d2d" d="M248.54 120.49c27.16 12.34 53.88 25.58 80.82 38.38 40.58 19.66 81.36 38.91 121.86 58.73 1.58.84 3.15 1.7 4.78 2.45-8.09 14.76-15.4 29.93-23.1 44.89-7.82 14.03-14.35 28.73-22.22 42.72-7.74 15.32-15.38 30.7-23.79 45.66-.96 1.1-1.97 2.15-2.96 3.21-70.25-39.64-140.52-79.23-210.88-118.67-1.37-.72-2.83-1.25-4.26-1.8l-.32-.14.2-.32c.46-.59.93-1.17 1.42-1.74 3.49-3.91 5.97-8.56 9.11-12.73 23.18-33.5 46.19-67.12 69.34-100.64z"/><path fill="#34161d" stroke="#34161d" d="M1.26 136.23c7.92-.69 15.87-.19 23.75.65 13.65.65 27.38-.72 40.99.92 9.52.78 19.11-.5 28.62.67 12.13 1.51 24.41-.42 36.53 1.18 6.85.97 13.79-.21 20.64.75 5.63.8 11.33.43 16.98.96.54 24.85.09 49.74.22 74.61.22 5.97-.87 12.11 1.1 17.89-.49.57-.96 1.15-1.42 1.74-50.56-26.86-101.06-53.82-151.66-80.59-5.32-3.06-10.97-5.54-16.16-8.83 0-3.32.07-6.64.41-9.95z"/><path fill="#591224" stroke="#591224" d="M0 145.56l.85.62c5.19 3.29 10.84 5.77 16.16 8.83 50.6 26.77 101.1 53.73 151.66 80.59l-.2.32c-9.93 20.71-21.04 40.82-31.22 61.41-6.28 11.52-12.02 23.32-18.01 34.99-7.27 13.21-13.52 26.96-21.07 40.03-11.1-20.98-21.15-42.5-31.91-63.66-21.4-42.4-42.27-85.07-63.73-127.44A40.96 40.96 0 0 1 0 174.76v-29.2z"/><path fill="#7c1f2d" stroke="#7c1f2d" d="M0 174.76c.65 2.23 1.51 4.4 2.53 6.49 21.46 42.37 42.33 85.04 63.73 127.44 10.76 21.16 20.81 42.68 31.91 63.66l.77 1.34C91.33 380.53 84.9 388.5 77.97 396c-16.34 18.26-32.54 36.67-49.15 54.66-.56-.52-1.11-1.04-1.67-1.56C18.3 389.5 9.22 329.92 0 270.37v-95.61z"/><path fill="#782331" stroke="#782331" d="M456 220.05c15.5.27 31-.21 46.49.08-19.77 24.22-40.67 47.54-60.8 71.48-18.25 20.86-36.01 42.14-54.09 63.13-.18-.36-.53-1.07-.71-1.42 8.41-14.96 16.05-30.34 23.79-45.66 7.87-13.99 14.4-28.69 22.22-42.72 7.7-14.96 15.01-30.13 23.1-44.89z"/><path fill="#6a1e32" stroke="#6a1e32" d="M502.49 220.13c5.2.34 10.32 1.28 15.48 1.98 29.53 4.2 59.08 8.32 88.62 12.52 15.78 2.11 31.51 4.69 47.34 6.44l.21.58-.91.3c-4.08 1.11-7.97 2.75-11.8 4.52-74.48 32.14-148.9 64.43-223.36 96.62-11.04 4.62-21.86 9.74-33.02 14.06-.28-.15-.84-.46-1.12-.62.99-1.06 2-2.11 2.96-3.21.18.35.53 1.06.71 1.42 18.08-20.99 35.84-42.27 54.09-63.13 20.13-23.94 41.03-47.26 60.8-71.48z"/><path fill="#702434" stroke="#702434" d="M168.47 235.92l.32.14c6.62 15.19 14.04 30.01 20.97 45.07 21.46 45.53 42.86 91.1 64.37 136.62 1 2.1 1.94 4.27 2.44 6.56l-1.27.95c-6.43-2.8-13.17-4.73-19.84-6.83-28.79-9.5-57.56-19.06-86.34-28.57-15.52-4.87-30.81-10.48-46.45-14.91-1.24-.43-2.49-.85-3.73-1.26l-.77-1.34c7.55-13.07 13.8-26.82 21.07-40.03 5.99-11.67 11.73-23.47 18.01-34.99 10.18-20.59 21.29-40.7 31.22-61.41z"/><path fill="#7c3d45" stroke="#7c3d45" d="M168.79 236.06c1.43.55 2.89 1.08 4.26 1.8 70.36 39.44 140.63 79.03 210.88 118.67.28.16.84.47 1.12.62l.28.46c-42.74 22.58-85.01 46.04-127.75 68.61-.76-.34-1.52-.66-2.28-.96l1.27-.95c-.5-2.29-1.44-4.46-2.44-6.56-21.51-45.52-42.91-91.09-64.37-136.62-6.93-15.06-14.35-29.88-20.97-45.07z"/><path fill="#381a3d" stroke="#381a3d" d="M905.96 236.79c16.37-.85 32.78-.46 49.17-.96l.24.73c-2.83 7.17-4.52 14.71-6.71 22.08-7.43 25.64-14.44 51.41-21.9 77.04l-.45.45c-16.87-6.68-34.29-11.82-51.29-18.15-70.46-24.48-140.92-48.97-211.4-73.4-3.02-.96-5.98-2.1-8.93-3.23 8.09-.82 16.22-.36 24.33-.51 21.97-1.17 44-.37 65.97-1.54 35.34-.03 70.64-1.3 105.97-1.51 18.32-.93 36.67-.62 55-1z"/><path fill="#382a56" stroke="#382a56" d="M955.37 236.56c7.19 15.22 12.78 31.13 19.49 46.56 3.97 10.71 8.96 21.02 12.59 31.86-19.94 7.08-39.96 13.94-59.89 21.02l-.8-.32c7.46-25.63 14.47-51.4 21.9-77.04 2.19-7.37 3.88-14.91 6.71-22.08z"/><path fill="#45224c" stroke="#45224c" d="M653.93 241.07l.76.28c2.95 1.13 5.91 2.27 8.93 3.23 70.48 24.43 140.94 48.92 211.4 73.4 17 6.33 34.42 11.47 51.29 18.15-22.65 20.76-46 40.77-68.83 61.34-29.17 25.84-58.27 51.75-87.44 77.58-7.52 6.38-14.4 13.51-22.32 19.4-4.96-11.45-8.67-23.4-13.23-35.02-26.7-72.62-53.78-145.12-80.35-217.78l-.21-.58z"/><path fill="#8c2543" stroke="#8c2543" d="M641.43 246.47c3.83-1.77 7.72-3.41 11.8-4.52-14.46 35.39-29.65 70.47-44.44 105.73-31.85 75.52-63.55 151.12-95.48 226.61-6.68 15.58-13.07 31.28-19.65 46.9l-.67.25c-30.04-74.06-60.18-148.09-90.31-222.12-5.89-13.85-10.85-28.12-17.35-41.71l-.28-.46c11.16-4.32 21.98-9.44 33.02-14.06 74.46-32.19 148.88-64.48 223.36-96.62z"/><path fill="#6e2049" stroke="#6e2049" d="M653.23 241.95l.91-.3c26.57 72.66 53.65 145.16 80.35 217.78 4.56 11.62 8.27 23.57 13.23 35.02l.24.42c-.13.24-.39.7-.52.93-4.11 1.14-7.99 2.92-11.72 4.96-70.64 35.34-141.33 70.57-211.99 105.87-9.55 5.23-19.81 9.02-29.16 14.6l-.91-.04c6.58-15.62 12.97-31.32 19.65-46.9 31.93-75.49 63.63-151.09 95.48-226.61 14.79-35.26 29.98-70.34 44.44-105.73z"/><path fill="#2e4478" stroke="#2e4478" d="M1154.03 284.02c-.12-5.55-.69-11.22.97-16.63v513.07c-1.99-6.16-2.19-12.67-3.7-18.93-1.57 7.03-.36 14.29-.65 21.43-.31 15.02.89 29.99.87 45.01.03 12.31.19 24.62.08 36.93-1.05.11-2.08.15-3.11.11-3.89-20.9-6.32-42.05-9.64-63.04-7.16-47.93-14.17-95.89-21.29-143.83-.31-2.19-.53-4.39-.69-6.58.9-3.39 1.47-6.86 1.39-10.36-.02-7.38 1.45-14.63 2.04-21.95.5-4.32 1.51-8.62 1.22-12.99-.5-5.73 1.36-11.33.95-17.06-.47-5.15 2.34-9.9 1.88-15.04-.15-4.72.11-9.45.73-14.13 1.3-8.03 1.89-16.17 2.32-24.28 1.5-7.74.48-15.68 1.98-23.43.21-7.37.72-14.72 1.77-22.02-.58-6.3 2.21-12.33.9-18.61.58.21 1.17.43 1.77.66-.46-5.9-1.14-11.89.55-17.69.44-11.69 1.72-23.35 2.41-35.04 1.05-7.91.61-16.05 2.94-23.75.95-3.26-.66-6.58-.06-9.88 1.22-8.95 1.76-17.96 2.41-26.96-.09-3.16.34-6.32 1.61-9.25.53 11.39.02 22.82 1.1 34.18.7 14.94-.35 29.94.9 44.86.83 11.76.03 23.58.69 35.35 3.32-2.57 3.31-7.12 3.96-10.89 1.06-8.64-1.2-17.55 1.25-26.02.37-1.66.3-3.37-.05-5.03-.66-2.99.44-5.94 1.25-8.78 1.55-5.01.92-10.31.99-15.47.1-37.98.03-75.97.26-113.96z"/><path fill="#94472a" stroke="#94472a" d="M0 270.37C9.22 329.92 18.3 389.5 27.15 449.1c.13 1.1.27 2.21.33 3.33-.16 1.55-.39 3.1-.58 4.66-4.12 45.36-9.12 90.66-13.53 136-3.46 34-6.84 68-10.31 102-.94 8.58-1.42 17.22-3.06 25.72V270.37z"/><path fill="#444583" stroke="#444583" d="M927.56 336c19.93-7.08 39.95-13.94 59.89-21.02 12.32 8.98 24.21 18.54 36.29 27.84-2.26 3.47-5.77 6.3-9.95 6.95-2.76.12-5.4-.82-8.09-1.23.66 1.83 2.58 2.38 4.16 3.18-4.27 2.45-8.93 4.1-13.25 6.45-16.24-4.88-32.33-10.23-48.5-15.32-6.85-2.29-13.89-4.03-20.55-6.85z"/><path fill="#3e2963" stroke="#3e2963" d="M926.31 336.13l.45-.45c.89 11.71-.07 23.46.56 35.18 1.77 21.67-.31 43.47 1.61 65.13.28 19.01-.62 38.06.94 57.02.13 15.34.07 30.68.11 46.03 1.55 18.6.77 37.3.85 55.95-60.96-33.36-121.83-66.91-182.87-100.12l-.24-.42c7.92-5.89 14.8-13.02 22.32-19.4 29.17-25.83 58.27-51.74 87.44-77.58 22.83-20.57 46.18-40.58 68.83-61.34z"/><path fill="#38306d" stroke="#38306d" d="M926.76 335.68l.8.32c6.66 2.82 13.7 4.56 20.55 6.85 16.17 5.09 32.26 10.44 48.5 15.32 24.57 7.8 49.15 15.62 73.71 23.48 1.59.47 3.25.78 4.91 1.08.46.09 1.39.28 1.85.37l.48 1.44c-4.16 3.69-6.53 8.79-9.85 13.15-28.69 41.36-57.01 82.97-85.77 124.28-11.85 17.47-24.04 34.69-35.75 52.25-4.89 7.08-10.09 13.94-14.6 21.27l-.81.53.05-1.03c-.08-18.65.7-37.35-.85-55.95-.04-15.35.02-30.69-.11-46.03-1.56-18.96-.66-38.01-.94-57.02-1.92-21.66.16-43.46-1.61-65.13-.63-11.72.33-23.47-.56-35.18z"/><path fill="#424a8a" stroke="#424a8a" d="M1013.79 349.77c4.18-.65 7.69-3.48 9.95-6.95 17.09 13.4 34.57 26.29 51.49 39.91-1.66-.3-3.32-.61-4.91-1.08-24.56-7.86-49.14-15.68-73.71-23.48 4.32-2.35 8.98-4 13.25-6.45-1.58-.8-3.5-1.35-4.16-3.18 2.69.41 5.33 1.35 8.09 1.23z"/><path fill="#9a4250" stroke="#9a4250" d="M257.58 426.22c42.74-22.57 85.01-46.03 127.75-68.61 6.5 13.59 11.46 27.86 17.35 41.71 30.13 74.03 60.27 148.06 90.31 222.12-3.57-2.93-7.05-6-10.82-8.68-70.25-58.71-140.61-117.29-210.83-176.05-4.46-3.33-8.27-7.55-13.21-10.22l-.55-.27z"/><path fill="#8d2f38" stroke="#8d2f38" d="M77.97 396c6.93-7.5 13.36-15.47 20.97-22.31 1.24.41 2.49.83 3.73 1.26 5.08 3.98 11.05 6.55 16.63 9.72 38.69 21.01 77.39 42 116.02 63.12 2.9 1.53 5.86 2.96 8.87 4.28l-.19.35c-72.18-.08-144.35-.12-216.52.01-.06-1.12-.2-2.23-.33-3.33.56.52 1.11 1.04 1.67 1.56 16.61-17.99 32.81-36.4 49.15-54.66z"/><path fill="#833e45" stroke="#833e45" d="M102.67 374.95c15.64 4.43 30.93 10.04 46.45 14.91 28.78 9.51 57.55 19.07 86.34 28.57 6.67 2.1 13.41 4.03 19.84 6.83.76.3 1.52.62 2.28.96l.55.27c-4.89 8.39-9.13 17.15-13.94 25.58-3.01-1.32-5.97-2.75-8.87-4.28-38.63-21.12-77.33-42.11-116.02-63.12-5.58-3.17-11.55-5.74-16.63-9.72z"/><path fill="#303777" stroke="#303777" d="M1067.71 397.69c3.32-4.36 5.69-9.46 9.85-13.15.63 2.56 1.08 5.17 1.27 7.81-1.67 4.03-1.02 8.41-.78 12.63 4.42 130.32 8.88 260.65 13.32 390.95l-.95.26c-11.61-15.82-23.86-31.17-36.18-46.43-21.24-27.06-42.79-53.86-64.12-80.85-19.52-24.47-38.69-49.21-58.53-73.42 4.51-7.33 9.71-14.19 14.6-21.27 11.71-17.56 23.9-34.78 35.75-52.25 28.76-41.31 57.08-82.92 85.77-124.28z"/><path fill="#33579d" stroke="#33579d" d="M1078.05 404.98c-.24-4.22-.89-8.6.78-12.63 2.88 22.91 6.79 45.69 9.84 68.59 9.28 63.56 18.79 127.08 28.2 190.62.16 2.19.38 4.39.69 6.58 7.12 47.94 14.13 95.9 21.29 143.83 3.32 20.99 5.75 42.14 9.64 63.04 1.03.04 2.06 0 3.11-.11.11-12.31-.05-24.62-.08-36.93.02-15.02-1.18-29.99-.87-45.01.29-7.14-.92-14.4.65-21.43 1.51 6.26 1.71 12.77 3.7 18.93V866h-44.48c-5.87-20.75-11.4-41.59-17.25-62.35-.72-2.56-1.45-5.11-1.9-7.72-4.44-130.3-8.9-260.63-13.32-390.95z"/><path fill="#9e5958" stroke="#9e5958" d="M244.19 452.07c4.81-8.43 9.05-17.19 13.94-25.58 4.94 2.67 8.75 6.89 13.21 10.22 70.22 58.76 140.58 117.34 210.83 176.05-3.01-1.07-5.7-2.8-8.24-4.7-45.69-31.02-91.44-61.94-137.25-92.78-27.31-18.75-54.87-37.13-82.38-55.59-2.96-2.17-6.15-4-9.41-5.69l-1.07-.63.18-.95.19-.35z"/><path fill="#b55f3b" stroke="#b55f3b" d="M26.9 457.09c.19-1.56.42-3.11.58-4.66 72.17-.13 144.34-.09 216.52-.01l-.18.95c-3.48 20.06-7.71 39.98-11.34 60.01-15.02 78.34-29.75 156.74-44.91 235.04-2.87-3.09-4.39-7.07-6.41-10.69C130.4 643.04 79.5 548.42 28.65 453.79c-.62 1.08-1.23 2.16-1.75 3.3z"/><path fill="#c77e33" stroke="#c77e33" d="M26.9 457.09c.52-1.14 1.13-2.22 1.75-3.3C79.5 548.42 130.4 643.04 181.16 737.73c2.02 3.62 3.54 7.6 6.41 10.69l.53.52c-.48.45-.94.91-1.4 1.4-1.18.22-2.38.41-3.51.83-34.76 16.82-69.29 34.12-104 51.06-3.51 1.81-7.31 3.13-10.62 5.33-1.38 1.47-2.26 3.32-3.25 5.08-3.52 6.62-7.39 13.05-11.27 19.46-6.82 11.24-12.91 22.92-20.16 33.9H0V720.81c1.64-8.5 2.12-17.14 3.06-25.72 3.47-34 6.85-68 10.31-102 4.41-45.34 9.41-90.64 13.53-136z"/><path fill="#b06c47" stroke="#b06c47" d="M243.82 453.37l1.07.63c3.55 19.79 7.93 39.42 11.94 59.12 11.36 55.66 22.94 111.27 34.11 166.96-34.67 22.46-68.73 45.86-103.37 68.34 15.16-78.3 29.89-156.7 44.91-235.04 3.63-20.03 7.86-39.95 11.34-60.01z"/><path fill="#a34a4d" stroke="#a34a4d" d="M244.89 454c3.26 1.69 6.45 3.52 9.41 5.69 27.51 18.46 55.07 36.84 82.38 55.59 45.81 30.84 91.56 61.76 137.25 92.78 2.54 1.9 5.23 3.63 8.24 4.7 3.77 2.68 7.25 5.75 10.82 8.68-18.6 5.83-37.42 10.94-56.12 16.41-48.38 14.08-96.86 27.8-145.2 42.01l-.73.22c-11.17-55.69-22.75-111.3-34.11-166.96-4.01-19.7-8.39-39.33-11.94-59.12z"/><path fill="#6b488b" stroke="#6b488b" d="M747.96 494.87c61.04 33.21 121.91 66.76 182.87 100.12l-.05 1.03c-.27.18-.81.55-1.08.73-5.7-.44-11.22 1.33-16.78 2.25-65.01 12.09-129.91 24.75-194.89 37.03-2.61.5-5.21 1.06-7.8 1.65 12.08-47.37 25.05-94.52 37.21-141.88.13-.23.39-.69.52-.93z"/><path fill="#762257" stroke="#762257" d="M735.72 500.76c3.73-2.04 7.61-3.82 11.72-4.96-12.16 47.36-25.13 94.51-37.21 141.88-8.1.02-16.15-.89-24.21-1.57-48.01-3.5-96-7.3-144-10.92-15.82-1.35-31.66-2.37-47.45-3.96 9.35-5.58 19.61-9.37 29.16-14.6 70.66-35.3 141.35-70.53 211.99-105.87z"/><path fill="#6e5386" stroke="#6e5386" d="M912.92 599c5.56-.92 11.08-2.69 16.78-2.25-32.51 33.14-65.43 65.86-98.13 98.81-32.76 32.89-65.39 65.93-98.13 98.85-9.22 9.1-18.12 18.54-27.57 27.41a12.12 12.12 0 0 1-.4-3.78c.32-17.68 1.21-35.33 1.26-53.01.81-13.33.74-26.69 1.06-40.03.78-14 .68-28.03 1.05-42.04.92-15.08.43-30.2 1.39-45.28 2.59-.59 5.19-1.15 7.8-1.65 64.98-12.28 129.88-24.94 194.89-37.03z"/><path fill="#302d65" stroke="#302d65" d="M929.7 596.75c.27-.18.81-.55 1.08-.73l.81-.53c19.84 24.21 39.01 48.95 58.53 73.42 21.33 26.99 42.88 53.79 64.12 80.85 12.32 15.26 24.57 30.61 36.18 46.43-5.31 1.93-11.04.97-16.53 1.77-25.06 1.62-50.13 3.12-75.18 4.89-8.58.63-17.15 1.4-25.74 1.6-29.5 2.43-59.06 3.83-88.57 6.14-24.94 1.52-49.87 3.24-74.79 4.97-29.22 1.68-58.39 4.22-87.63 5.6-5.02.37-10.04.69-15.04 1.12l-1.07-.46c9.45-8.87 18.35-18.31 27.57-27.41 32.74-32.92 65.37-65.96 98.13-98.85 32.7-32.95 65.62-65.67 98.13-98.81z"/><path fill="#98393c" stroke="#98393c" d="M492.99 621.44l.67-.25c.44.82.9 1.64 1.35 2.48 2.14 6.97 5.23 13.59 8 20.32C533.67 718 564.28 792.02 595 866h-70.01c-4.25-2.2-7.69-5.58-11.42-8.51-57.97-46.4-115.96-92.75-173.98-139.09-15.94-12.88-32.15-25.44-47.92-38.54 48.34-14.21 96.82-27.93 145.2-42.01 18.7-5.47 37.52-10.58 56.12-16.41z"/><path fill="#8a214f" stroke="#8a214f" d="M493.66 621.19l.91.04c15.79 1.59 31.63 2.61 47.45 3.96 48 3.62 95.99 7.42 144 10.92 8.06.68 16.11 1.59 24.21 1.57-.96 15.08-.47 30.2-1.39 45.28-.37 14.01-.27 28.04-1.05 42.04-.32 13.34-.25 26.7-1.06 40.03-.05 17.68-.94 35.33-1.26 53.01-.07 1.27.07 2.53.4 3.78l1.07.46c-.33.03-.99.08-1.32.1l-.62.01c-6.88-7.24-13.86-14.43-21.5-20.86-5.83-5.22-10.86-11.26-16.89-16.25-6.95-5.71-12.66-12.74-19.6-18.46-6.55-5.43-11.93-12.08-18.47-17.51-7.23-6.06-13.33-13.31-20.51-19.42-7.2-6.11-13.32-13.36-20.56-19.42-6.47-5.48-11.88-12.09-18.43-17.48-6.39-5.25-11.58-11.77-18.01-16.98-6.77-5.56-12.29-12.45-19.05-18.01-6.94-5.71-12.54-12.84-19.56-18.46-6.17-4.9-10.76-11.56-17.41-15.87-.45-.84-.91-1.66-1.35-2.48z"/><path fill="#852041" stroke="#852041" d="M495.01 623.67c6.65 4.31 11.24 10.97 17.41 15.87 7.02 5.62 12.62 12.75 19.56 18.46 6.76 5.56 12.28 12.45 19.05 18.01 6.43 5.21 11.62 11.73 18.01 16.98 6.55 5.39 11.96 12 18.43 17.48 7.24 6.06 13.36 13.31 20.56 19.42 7.18 6.11 13.28 13.36 20.51 19.42 6.54 5.43 11.92 12.08 18.47 17.51 6.94 5.72 12.65 12.75 19.6 18.46 6.03 4.99 11.06 11.03 16.89 16.25 7.64 6.43 14.62 13.62 21.5 20.86-7.95 14.81-17.55 28.7-25.3 43.61H595c-30.72-73.98-61.33-148-91.99-222.01-2.77-6.73-5.86-13.35-8-20.32z"/><path fill="#b25e34" stroke="#b25e34" d="M187.57 748.42c34.64-22.48 68.7-45.88 103.37-68.34l.73-.22c15.77 13.1 31.98 25.66 47.92 38.54 58.02 46.34 116.01 92.69 173.98 139.09 3.73 2.93 7.17 6.31 11.42 8.51h-79.46c-53.92-24.63-107.85-49.25-161.81-73.78-12.48-5.35-24.59-11.51-37.06-16.86-19.56-8.71-38.82-18.14-58.56-26.42l-.53-.52z"/><path fill="#af6e31" stroke="#af6e31" d="M186.7 750.34c.46-.49.92-.95 1.4-1.4 19.74 8.28 39 17.71 58.56 26.42 12.47 5.35 24.58 11.51 37.06 16.86 53.96 24.53 107.89 49.15 161.81 73.78H121.89c21.46-38.63 43.14-77.15 64.81-115.66z"/><path fill="#dca033" stroke="#dca033" d="M183.19 751.17c1.13-.42 2.33-.61 3.51-.83-21.67 38.51-43.35 77.03-64.81 115.66h-88c7.25-10.98 13.34-22.66 20.16-33.9 3.88-6.41 7.75-12.84 11.27-19.46.99-1.76 1.87-3.61 3.25-5.08 3.31-2.2 7.11-3.52 10.62-5.33 34.71-16.94 69.24-34.24 104-51.06z"/><path fill="#302c59" stroke="#302c59" d="M1073.89 797.96c5.49-.8 11.22.16 16.53-1.77l.95-.26c.45 2.61 1.18 5.16 1.9 7.72 5.85 20.76 11.38 41.6 17.25 62.35H824.35c-39.49-14.77-79.15-29.09-118.73-43.62.33-.02.99-.07 1.32-.1 5-.43 10.02-.75 15.04-1.12 29.24-1.38 58.41-3.92 87.63-5.6 24.92-1.73 49.85-3.45 74.79-4.97 29.51-2.31 59.07-3.71 88.57-6.14 8.59-.2 17.16-.97 25.74-1.6 25.05-1.77 50.12-3.27 75.18-4.89z"/><path fill="#4b1e36" stroke="#4b1e36" d="M705 822.39l.62-.01c39.58 14.53 79.24 28.85 118.73 43.62H679.7c7.75-14.91 17.35-28.8 25.3-43.61z"/></svg>