<?xml version="1.0" encoding="UTF-8" standalone="no"?>
<svg width="502px" height="502px" viewBox="0 0 502 502" version="1.1" xmlns="http://www.w3.org/2000/svg" xmlns:xlink="http://www.w3.org/1999/xlink" xmlns:sketch="http://www.bohemiancoding.com/sketch/ns">
    <!-- Generator: Sketch 3.3.3 (12081) - http://www.bohemiancoding.com/sketch -->
    <title>server-max</title>
    <desc>Created with Sketch.</desc>
    <defs>
        <circle id="path-1" cx="250" cy="250" r="250"></circle>
    </defs>
    <g id="Page-1" stroke="none" stroke-width="1" fill="none" fill-rule="evenodd" sketch:type="MSPage">
        <mask id="mask-2" sketch:name="Mask" fill="white">
            <use xlink:href="#path-1"></use>
        </mask>
        <use id="Mask" fill="#F2D700" sketch:type="MSShapeGroup" xlink:href="#path-1"></use>
        <path d="M154.580109,481.636132 C154.580099,481.636129 76.8260157,400.427198 76.8260157,400.427198 L419.251797,96.9662602 L488.011169,171.684689 C538.876797,278.958448 456.197109,582.923291 154.580109,481.636132 Z" id="Rectangle-1-Copy" fill-opacity="0.2" fill="#4A4A4A" sketch:type="MSShapeGroup" mask="url(#mask-2)"></path>
        <g id="browser" sketch:type="MSLayerGroup" mask="url(#mask-2)">
            <g transform="translate(75.000000, 94.966260)">
                <g id="code" stroke-width="1" fill="none" sketch:type="MSLayerGroup" transform="translate(7.608000, 29.586667)">
                    <path d="M0.872812531,265.22701 L0.872812531,0.340347661 L331.39815,0.340347661 L331.39815,265.22701 L0.872812531,265.22701 Z" id="Path-Copy-5" fill="#FFFFFF" sketch:type="MSShapeGroup"></path>
                    <path d="M138.672292,177.263021 L62.92028,144.424356 L62.92028,126.202351 L138.672292,93.3712945 L138.672292,114.832617 L85.8905229,135.169647 L138.672292,155.950477 L138.672292,177.263021 Z" id="Shape" fill="#4A4A4A" sketch:type="MSShapeGroup"></path>
                    <path d="M185.514748,92.0728625 L164.423681,178.899586 C163.722055,181.756813 163.110033,184.018925 162.582545,185.677469 C162.055057,187.335168 161.256217,188.631909 160.175881,189.549941 C159.096391,190.481498 157.527452,190.943896 155.465684,190.943896 C150.351417,190.943896 147.787521,188.729122 147.787521,184.320709 C147.787521,183.164293 148.288804,180.27748 149.292214,175.660269 L170.302129,88.8335451 C171.407825,84.2171797 172.461956,81.053097 173.465367,79.348905 C174.468777,77.642177 176.424033,76.787545 179.340433,76.787545 C181.849383,76.787545 183.770826,77.391113 185.097154,78.5965583 C186.427708,79.8020037 187.095522,81.4597024 187.095522,83.5662731 C187.096367,85.1225317 186.564652,87.9577798 185.514748,92.0728625 L185.514748,92.0728625 Z" id="Shape" fill="#4A4A4A" sketch:type="MSShapeGroup"></path>
                    <path d="M271.885837,144.424356 L196.134671,177.410954 L196.134671,156.09841 L249.073672,135.31758 L196.134671,114.831772 L196.134671,93.6722332 L271.885837,126.35113 L271.885837,144.424356 L271.885837,144.424356 Z" id="Shape" fill="#4A4A4A" sketch:type="MSShapeGroup"></path>
                </g>
                <path d="M15.2434794,0.607794674 C0.872812531,0.607794674 0.872812531,6.68658985 0.872812531,17.2794589 L0.872812531,293.33067 C0.872812531,307.092701 0.872812531,307.092701 12.7074793,307.094388 L337.315483,307.092696 C349.151002,307.092701 349.151002,307.092701 349.150996,293.33067 L349.150996,17.2786156 C349.15015,6.68658985 349.151002,0.607794674 334.779483,0.607794674 L15.2434794,0.607794674 Z M13.5528127,294.783798 L13.5528127,31.0397951 L335.624817,31.0397951 L335.624817,294.783798 L13.5528127,294.783798 Z" id="Shape" fill="#D3D3D3" sketch:type="MSShapeGroup"></path>
                <g id="Buttons" stroke-width="1" fill="none" sketch:type="MSLayerGroup" transform="translate(21.160813, 7.608000)">
                    <path d="M51.6300923,8.62291305 C51.6300923,3.95973015 55.4243464,0.169066669 60.0834257,0.169066669 C64.742505,0.169066669 68.5372721,3.95973015 68.5372721,8.62291305 C68.5372721,13.2845571 64.742505,17.0757335 60.0834257,17.0757335 C55.4243464,17.0757335 51.6300923,13.2845571 51.6300923,8.62291305 Z" id="Path-Copy-3" fill="#17CB37" sketch:type="MSShapeGroup"></path>
                    <path d="M34.6913027,0.169066669 C39.3498691,0.169066669 43.1446362,3.95973015 43.1446362,8.62291305 C43.1446362,13.2845571 39.3498691,17.0757335 34.6913027,17.0757335 C30.0291457,17.0757335 26.2374563,13.2845571 26.2374563,8.62291305 C26.2374563,3.96024309 30.0291457,0.169066669 34.6913027,0.169066669 L34.6913027,0.169066669 Z" id="Path-Copy-2" fill="#FFBE06" sketch:type="MSShapeGroup"></path>
                    <path d="M17.7520002,8.74246994 C17.7520002,13.4700404 13.9061674,17.3148328 9.18119795,17.3148328 C4.45362748,17.3148328 0.607794674,13.4700404 0.607794674,8.74246994 C0.607274475,4.01385907 4.45362748,0.169066669 9.18119795,0.169066669 C13.9061674,0.169066669 17.7520002,4.01333887 17.7520002,8.74246994 Z" id="Path-Copy" fill="#FF5E52" sketch:type="MSShapeGroup"></path>
                </g>
            </g>
        </g>
    </g>
</svg>