<?xml version="1.0" encoding="UTF-8" standalone="no"?>
<svg
   xmlns:dc="http://purl.org/dc/elements/1.1/"
   xmlns:cc="http://creativecommons.org/ns#"
   xmlns:rdf="http://www.w3.org/1999/02/22-rdf-syntax-ns#"
   xmlns:svg="http://www.w3.org/2000/svg"
   xmlns="http://www.w3.org/2000/svg"
   xmlns:sodipodi="http://sodipodi.sourceforge.net/DTD/sodipodi-0.dtd"
   xmlns:inkscape="http://www.inkscape.org/namespaces/inkscape"
   width="1155pt"
   height="866pt"
   viewBox="0 0 1155 866"
   version="1.1"
   id="svg3512"
   inkscape:version="0.91 r13725"
   sodipodi:docname="polygon.svg">
  <metadata
     id="metadata3616">
    <rdf:RDF>
      <cc:Work
         rdf:about="">
        <dc:format>image/svg+xml</dc:format>
        <dc:type
           rdf:resource="http://purl.org/dc/dcmitype/StillImage" />
      </cc:Work>
    </rdf:RDF>
  </metadata>
  <defs
     id="defs3614" />
  <sodipodi:namedview
     pagecolor="#ffffff"
     bordercolor="#666666"
     borderopacity="1"
     objecttolerance="10"
     gridtolerance="10"
     guidetolerance="10"
     inkscape:pageopacity="0"
     inkscape:pageshadow="2"
     inkscape:window-width="1280"
     inkscape:window-height="680"
     id="namedview3612"
     showgrid="false"
     inkscape:zoom="0.56764507"
     inkscape:cx="891.45125"
     inkscape:cy="829.77363"
     inkscape:window-x="0"
     inkscape:window-y="0"
     inkscape:window-maximized="0"
     inkscape:current-layer="svg3512" />
  <path
     d="M 379.74,0 560.13933,-0.07393765 653.41,240.74 Z"
     id="path3520"
     inkscape:connector-curvature="0"
     style="fill:#20141d;stroke:#20141d"
     sodipodi:nodetypes="cccc" />
  <path
     fill="#1c1417"
     stroke="#1c1417"
     d=" M 0.00 0.00 L 335.19 0.00 C 326.87 12.60 317.35 24.37 308.71 36.76 C 291.06 61.10 273.47 85.47 255.90 109.86 C 252.88 113.81 250.56 119.20 245.16 120.26 C 225.02 125.81 204.79 131.03 184.64 136.55 C 179.42 137.67 174.39 139.91 169.01 140.15 C 164.52 138.80 161.20 135.23 157.54 132.48 C 147.54 124.10 136.52 117.03 126.51 108.66 C 113.93 99.21 101.57 89.47 88.80 80.28 C 59.22 57.70 29.59 35.16 0.00 12.58 L 0.00 0.00 Z"
     id="path3514" />
  <path
     fill="#33171d"
     stroke="#33171d"
     d=" M 335.19 0.00 L 362.03 0.00 C 371.24 20.30 379.62 40.97 388.52 61.41 C 402.04 92.93 415.27 124.56 428.93 156.01 C 432.20 162.97 434.67 170.27 437.86 177.27 C 441.38 184.85 444.43 192.63 447.69 200.32 C 449.65 205.85 453.11 211.57 451.22 217.60 C 410.72 197.78 369.94 178.53 329.36 158.87 C 302.42 146.07 275.70 132.83 248.54 120.49 C 225.39 154.01 202.38 187.63 179.20 221.13 C 176.06 225.30 173.58 229.95 170.09 233.86 C 168.12 228.08 169.21 221.94 168.99 215.97 C 168.86 191.10 169.31 166.21 168.77 141.36 C 163.12 140.83 157.42 141.20 151.79 140.40 C 144.94 139.44 138.00 140.62 131.15 139.65 C 119.03 138.05 106.75 139.98 94.62 138.47 C 85.11 137.30 75.52 138.58 66.00 137.80 C 52.39 136.16 38.66 137.53 25.01 136.88 C 17.13 136.04 9.18 135.54 1.26 136.23 C 0.92 139.54 0.85 142.86 0.85 146.18 L 0.00 145.56 L 0.00 12.58 C 29.59 35.16 59.22 57.70 88.80 80.28 C 101.57 89.47 113.93 99.21 126.51 108.66 C 136.52 117.03 147.54 124.10 157.54 132.48 C 161.20 135.23 164.52 138.80 169.01 140.15 C 174.39 139.91 179.42 137.67 184.64 136.55 C 204.79 131.03 225.02 125.81 245.16 120.26 C 250.56 119.20 252.88 113.81 255.90 109.86 C 273.47 85.47 291.06 61.10 308.71 36.76 C 317.35 24.37 326.87 12.60 335.19 0.00 Z"
     id="path3516"
     style="fill:#591224;fill-opacity:1" />
  <path
     fill="#451924"
     stroke="#451924"
     d=" M 362.03 0.00 L 379.74 0.00 C 393.01 12.54 407.07 24.23 420.69 36.39 C 481.29 89.76 541.83 143.18 602.50 196.46 C 617.22 209.41 631.86 222.45 646.49 235.49 C 648.64 237.44 651.01 239.11 653.41 240.74 L 653.93 241.07 C 638.10 239.32 622.37 236.74 606.59 234.63 C 577.05 230.43 547.50 226.31 517.97 222.11 C 512.81 221.41 507.69 220.47 502.49 220.13 C 487.00 219.84 471.50 220.32 456.00 220.05 C 454.37 219.30 452.80 218.44 451.22 217.60 C 453.11 211.57 449.65 205.85 447.69 200.32 C 444.43 192.63 441.38 184.85 437.86 177.27 C 434.67 170.27 432.20 162.97 428.93 156.01 C 415.27 124.56 402.04 92.93 388.52 61.41 C 379.62 40.97 371.24 20.30 362.03 0.00 Z"
     id="path3518" />
  <path
     d="M 1029.9755,48.608336 955.13,235.83 l -300.44,5.52 -0.76,-0.28 -0.52,-0.33 z"
     id="path3526"
     style="fill:#2a192c;stroke:#2a192c;stroke-opacity:1;stroke-width:1.4;stroke-miterlimit:4;stroke-dasharray:none"
     inkscape:connector-curvature="0"
     sodipodi:nodetypes="cccccc" />
  <path
     d="m 1030.8543,48.882126 c 0,0 30.0157,221.832404 42.9357,316.277874 1.05,5.98 0.97,12.22 3.29,17.94 -0.46,-0.09 -1.39,-0.28 -1.85,-0.37 -16.92,-13.62 -34.4,-26.51 -51.49,-39.91 -12.08,-9.3 -23.97,-18.86 -36.29,-27.84 -3.63,-10.84 -8.62,-21.15 -12.59,-31.86 -6.71,-15.43 -12.3,-31.34 -19.49,-46.56 l -0.24,-0.73 z"
     id="path3528"
     inkscape:connector-curvature="0"
     style="fill:#373d72;stroke:#373d72;stroke-width:1.72;stroke-miterlimit:4;stroke-dasharray:none"
     sodipodi:nodetypes="cccccccccc" />
  <path
     fill="#5e1d2d"
     stroke="#5e1d2d"
     d=" M 248.54 120.49 C 275.70 132.83 302.42 146.07 329.36 158.87 C 369.94 178.53 410.72 197.78 451.22 217.60 C 452.80 218.44 454.37 219.30 456.00 220.05 C 447.91 234.81 440.60 249.98 432.90 264.94 C 425.08 278.97 418.55 293.67 410.68 307.66 C 402.94 322.98 395.30 338.36 386.89 353.32 C 385.93 354.42 384.92 355.47 383.93 356.53 C 313.68 316.89 243.41 277.30 173.05 237.86 C 171.68 237.14 170.22 236.61 168.79 236.06 L 168.47 235.92 L 168.67 235.60 C 169.13 235.01 169.60 234.43 170.09 233.86 C 173.58 229.95 176.06 225.30 179.20 221.13 C 202.38 187.63 225.39 154.01 248.54 120.49 Z"
     id="path3530" />
  <path
     d="m 1.26,136.23 168.21467,1.60667 c 0.54,24.85 -0.61467,53.26333 -0.48467,78.13333 0.22,5.97 -0.87,12.11 1.1,17.89 -0.49,0.57 -0.96,1.15 -1.42,1.74 C 118.11,208.74 67.61,181.78 17.01,155.01 11.69,151.95 6.04,149.47 0.85,146.18 c 0,-3.32 0.07,-6.64 0.41,-9.95 z"
     id="path3532"
     style="fill:#471224;fill-opacity:1;stroke:#471224;stroke-opacity:1"
     inkscape:connector-curvature="0"
     sodipodi:nodetypes="cccccccc" />
  <path
     fill="#591224"
     stroke="#591224"
     d=" M 0.00 145.56 L 0.85 146.18 C 6.04 149.47 11.69 151.95 17.01 155.01 C 67.61 181.78 118.11 208.74 168.67 235.60 L 168.47 235.92 C 158.54 256.63 147.43 276.74 137.25 297.33 C 130.97 308.85 125.23 320.65 119.24 332.32 C 111.97 345.53 105.72 359.28 98.17 372.35 C 87.07 351.37 77.02 329.85 66.26 308.69 C 44.86 266.29 23.99 223.62 2.53 181.25 C 1.51 179.16 0.65 176.99 0.00 174.76 L 0.00 145.56 Z"
     id="path3534" />
  <path
     fill="#7c1f2d"
     stroke="#7c1f2d"
     d=" M 0.00 174.76 C 0.65 176.99 1.51 179.16 2.53 181.25 C 23.99 223.62 44.86 266.29 66.26 308.69 C 77.02 329.85 87.07 351.37 98.17 372.35 C 98.36 372.68 98.75 373.36 98.94 373.69 C 91.33 380.53 84.90 388.50 77.97 396.00 C 61.63 414.26 45.43 432.67 28.82 450.66 C 28.26 450.14 27.71 449.62 27.15 449.10 C 18.30 389.50 9.22 329.92 0.00 270.37 L 0.00 174.76 Z"
     id="path3536" />
  <path
     fill="#702434"
     stroke="#702434"
     d=" M 168.47 235.92 L 168.79 236.06 C 175.41 251.25 182.83 266.07 189.76 281.13 C 211.22 326.66 232.62 372.23 254.13 417.75 C 255.13 419.85 256.07 422.02 256.57 424.31 C 256.25 424.55 255.62 425.02 255.30 425.26 C 248.87 422.46 242.13 420.53 235.46 418.43 C 206.67 408.93 177.90 399.37 149.12 389.86 C 133.60 384.99 118.31 379.38 102.67 374.95 C 101.43 374.52 100.18 374.10 98.94 373.69 C 98.75 373.36 98.36 372.68 98.17 372.35 C 105.72 359.28 111.97 345.53 119.24 332.32 C 125.23 320.65 130.97 308.85 137.25 297.33 C 147.43 276.74 158.54 256.63 168.47 235.92 Z"
     id="path3542" />
  <path
     fill="#7c3d45"
     stroke="#7c3d45"
     d=" M 168.79 236.06 C 170.22 236.61 171.68 237.14 173.05 237.86 C 243.41 277.30 313.68 316.89 383.93 356.53 C 384.21 356.69 384.77 357.00 385.05 357.15 L 385.33 357.61 C 342.59 380.19 300.32 403.65 257.58 426.22 C 256.82 425.88 256.06 425.56 255.30 425.26 C 255.62 425.02 256.25 424.55 256.57 424.31 C 256.07 422.02 255.13 419.85 254.13 417.75 C 232.62 372.23 211.22 326.66 189.76 281.13 C 182.83 266.07 175.41 251.25 168.79 236.06 Z"
     id="path3544" />
  <path
     d="m 955.13,235.83 0.24,0.73 c 0,0 -19.95182,69.30343 -28.61,99.12 l -0.45,0.45 -271.62,-94.78 z"
     id="path3546"
     inkscape:connector-curvature="0"
     style="fill:#381a3d;stroke:#381a3d"
     sodipodi:nodetypes="cccccc" />
  <path
     fill="#382a56"
     stroke="#382a56"
     d=" M 955.37 236.56 C 962.56 251.78 968.15 267.69 974.86 283.12 C 978.83 293.83 983.82 304.14 987.45 314.98 C 967.51 322.06 947.49 328.92 927.56 336.00 L 926.76 335.68 C 934.22 310.05 941.23 284.28 948.66 258.64 C 950.85 251.27 952.54 243.73 955.37 236.56 Z"
     id="path3548" />
  <path
     fill="#45224c"
     stroke="#45224c"
     d=" M 653.93 241.07 L 654.69 241.35 C 657.64 242.48 660.60 243.62 663.62 244.58 C 734.10 269.01 804.56 293.50 875.02 317.98 C 892.02 324.31 909.44 329.45 926.31 336.13 C 903.66 356.89 880.31 376.90 857.48 397.47 C 828.31 423.31 799.21 449.22 770.04 475.05 C 762.52 481.43 755.64 488.56 747.72 494.45 C 742.76 483.00 739.05 471.05 734.49 459.43 C 707.79 386.81 680.71 314.31 654.14 241.65 L 653.93 241.07 Z"
     id="path3550" />
  <path
     fill="#6e2049"
     stroke="#6e2049"
     d=" M 653.23 241.95 L 654.14 241.65 C 680.71 314.31 707.79 386.81 734.49 459.43 C 739.05 471.05 742.76 483.00 747.72 494.45 L 747.96 494.87 C 747.83 495.11 747.57 495.57 747.44 495.80 C 743.33 496.94 739.45 498.72 735.72 500.76 C 665.08 536.10 594.39 571.33 523.73 606.63 C 514.18 611.86 503.92 615.65 494.57 621.23 L 493.66 621.19 C 500.24 605.57 506.63 589.87 513.31 574.29 C 545.24 498.80 576.94 423.20 608.79 347.68 C 623.58 312.42 638.77 277.34 653.23 241.95 Z"
     id="path3554" />
  <path
     fill="#94472a"
     stroke="#94472a"
     d=" M 0.00 270.37 C 9.22 329.92 18.30 389.50 27.15 449.10 C 27.28 450.20 27.42 451.31 27.48 452.43 C 27.32 453.98 27.09 455.53 26.90 457.09 C 22.78 502.45 17.78 547.75 13.37 593.09 C 9.91 627.09 6.53 661.09 3.06 695.09 C 2.12 703.67 1.64 712.31 0.00 720.81 L 0.00 270.37 Z"
     id="path3558" />
  <path
     d="m 927.56,336 c 19.93,-7.08 39.95,-13.94 59.89,-21.02 l 87.2216,67.73191 c 0,0 -140.4516,-43.89191 -147.1116,-46.71191 z"
     id="path3560"
     inkscape:connector-curvature="0"
     style="fill:#444583;stroke:#444583"
     sodipodi:nodetypes="cccc" />
  <path
     fill="#3e2963"
     stroke="#3e2963"
     d=" M 926.31 336.13 L 926.76 335.68 C 927.65 347.39 926.69 359.14 927.32 370.86 C 929.09 392.53 927.01 414.33 928.93 435.99 C 929.21 455.00 928.31 474.05 929.87 493.01 C 930.00 508.35 929.94 523.69 929.98 539.04 C 931.53 557.64 930.75 576.34 930.83 594.99 C 869.87 561.63 809.00 528.08 747.96 494.87 L 747.72 494.45 C 755.64 488.56 762.52 481.43 770.04 475.05 C 799.21 449.22 828.31 423.31 857.48 397.47 C 880.31 376.90 903.66 356.89 926.31 336.13 Z"
     id="path3562" />
  <path
     fill="#38306d"
     stroke="#38306d"
     d=" M 926.76 335.68 L 927.56 336.00 C 934.22 338.82 941.26 340.56 948.11 342.85 C 964.28 347.94 980.37 353.29 996.61 358.17 C 1021.18 365.97 1045.76 373.79 1070.32 381.65 C 1071.91 382.12 1073.57 382.43 1075.23 382.73 C 1075.69 382.82 1076.62 383.01 1077.08 383.10 C 1077.20 383.46 1077.44 384.18 1077.56 384.54 C 1073.40 388.23 1071.03 393.33 1067.71 397.69 C 1039.02 439.05 1010.70 480.66 981.94 521.97 C 970.09 539.44 957.90 556.66 946.19 574.22 C 941.30 581.30 936.10 588.16 931.59 595.49 L 930.78 596.02 L 930.83 594.99 C 930.75 576.34 931.53 557.64 929.98 539.04 C 929.94 523.69 930.00 508.35 929.87 493.01 C 928.31 474.05 929.21 455.00 928.93 435.99 C 927.01 414.33 929.09 392.53 927.32 370.86 C 926.69 359.14 927.65 347.39 926.76 335.68 Z"
     id="path3564" />
  <path
     fill="#9a4250"
     stroke="#9a4250"
     d=" M 257.58 426.22 C 300.32 403.65 342.59 380.19 385.33 357.61 C 391.83 371.20 396.79 385.47 402.68 399.32 C 432.81 473.35 462.95 547.38 492.99 621.44 C 489.42 618.51 485.94 615.44 482.17 612.76 C 411.92 554.05 341.56 495.47 271.34 436.71 C 266.88 433.38 263.07 429.16 258.13 426.49 L 257.58 426.22 Z"
     id="path3568" />
  <path
     fill="#8d2f38"
     stroke="#8d2f38"
     d=" M 77.97 396.00 C 84.90 388.50 91.33 380.53 98.94 373.69 C 100.18 374.10 101.43 374.52 102.67 374.95 C 107.75 378.93 113.72 381.50 119.30 384.67 C 157.99 405.68 196.69 426.67 235.32 447.79 C 238.22 449.32 241.18 450.75 244.19 452.07 L 244.00 452.42 C 171.82 452.34 99.65 452.30 27.48 452.43 C 27.42 451.31 27.28 450.20 27.15 449.10 C 27.71 449.62 28.26 450.14 28.82 450.66 C 45.43 432.67 61.63 414.26 77.97 396.00 Z"
     id="path3570" />
  <path
     fill="#833e45"
     stroke="#833e45"
     d=" M 102.67 374.95 C 118.31 379.38 133.60 384.99 149.12 389.86 C 177.90 399.37 206.67 408.93 235.46 418.43 C 242.13 420.53 248.87 422.46 255.30 425.26 C 256.06 425.56 256.82 425.88 257.58 426.22 L 258.13 426.49 C 253.24 434.88 249.00 443.64 244.19 452.07 C 241.18 450.75 238.22 449.32 235.32 447.79 C 196.69 426.67 157.99 405.68 119.30 384.67 C 113.72 381.50 107.75 378.93 102.67 374.95 Z"
     id="path3572" />
  <path
     fill="#303777"
     stroke="#303777"
     d=" M 1067.71 397.69 C 1071.03 393.33 1073.40 388.23 1077.56 384.54 C 1078.19 387.10 1078.64 389.71 1078.83 392.35 C 1077.16 396.38 1077.81 400.76 1078.05 404.98 C 1082.47 535.30 1086.93 665.63 1091.37 795.93 L 1090.42 796.19 C 1078.81 780.37 1066.56 765.02 1054.24 749.76 C 1033.00 722.70 1011.45 695.90 990.12 668.91 C 970.60 644.44 951.43 619.70 931.59 595.49 C 936.10 588.16 941.30 581.30 946.19 574.22 C 957.90 556.66 970.09 539.44 981.94 521.97 C 1010.70 480.66 1039.02 439.05 1067.71 397.69 Z"
     id="path3574" />
  <path
     fill="#9e5958"
     stroke="#9e5958"
     d=" M 244.19 452.07 C 249.00 443.64 253.24 434.88 258.13 426.49 C 263.07 429.16 266.88 433.38 271.34 436.71 C 341.56 495.47 411.92 554.05 482.17 612.76 C 479.16 611.69 476.47 609.96 473.93 608.06 C 428.24 577.04 382.49 546.12 336.68 515.28 C 309.37 496.53 281.81 478.15 254.30 459.69 C 251.34 457.52 248.15 455.69 244.89 454.00 L 243.82 453.37 L 244.00 452.42 L 244.19 452.07 Z"
     id="path3578" />
  <path
     fill="#b55f3b"
     stroke="#b55f3b"
     d=" M 26.90 457.09 C 27.09 455.53 27.32 453.98 27.48 452.43 C 99.65 452.30 171.82 452.34 244.00 452.42 L 243.82 453.37 C 240.34 473.43 236.11 493.35 232.48 513.38 C 217.46 591.72 202.73 670.12 187.57 748.42 C 184.70 745.33 183.18 741.35 181.16 737.73 C 130.40 643.04 79.50 548.42 28.65 453.79 C 28.03 454.87 27.42 455.95 26.90 457.09 Z"
     id="path3580" />
  <path
     fill="#c77e33"
     stroke="#c77e33"
     d=" M 26.90 457.09 C 27.42 455.95 28.03 454.87 28.65 453.79 C 79.50 548.42 130.40 643.04 181.16 737.73 C 183.18 741.35 184.70 745.33 187.57 748.42 L 188.10 748.94 C 187.62 749.39 187.16 749.85 186.70 750.34 C 185.52 750.56 184.32 750.75 183.19 751.17 C 148.43 767.99 113.90 785.29 79.19 802.23 C 75.68 804.04 71.88 805.36 68.57 807.56 C 67.19 809.03 66.31 810.88 65.32 812.64 C 61.80 819.26 57.93 825.69 54.05 832.10 C 47.23 843.34 41.14 855.02 33.89 866.00 L 0.00 866.00 L 0.00 720.81 C 1.64 712.31 2.12 703.67 3.06 695.09 C 6.53 661.09 9.91 627.09 13.37 593.09 C 17.78 547.75 22.78 502.45 26.90 457.09 Z"
     id="path3582" />
  <path
     fill="#b06c47"
     stroke="#b06c47"
     d=" M 243.82 453.37 L 244.89 454.00 C 248.44 473.79 252.82 493.42 256.83 513.12 C 268.19 568.78 279.77 624.39 290.94 680.08 C 256.27 702.54 222.21 725.94 187.57 748.42 C 202.73 670.12 217.46 591.72 232.48 513.38 C 236.11 493.35 240.34 473.43 243.82 453.37 Z"
     id="path3584" />
  <path
     fill="#a34a4d"
     stroke="#a34a4d"
     d=" M 244.89 454.00 C 248.15 455.69 251.34 457.52 254.30 459.69 C 281.81 478.15 309.37 496.53 336.68 515.28 C 382.49 546.12 428.24 577.04 473.93 608.06 C 476.47 609.96 479.16 611.69 482.17 612.76 C 485.94 615.44 489.42 618.51 492.99 621.44 C 474.39 627.27 455.57 632.38 436.87 637.85 C 388.49 651.93 340.01 665.65 291.67 679.86 L 290.94 680.08 C 279.77 624.39 268.19 568.78 256.83 513.12 C 252.82 493.42 248.44 473.79 244.89 454.00 Z"
     id="path3586" />
  <path
     fill="#6b488b"
     stroke="#6b488b"
     d=" M 747.96 494.87 C 809.00 528.08 869.87 561.63 930.83 594.99 L 930.78 596.02 C 930.51 596.20 929.97 596.57 929.70 596.75 C 924.00 596.31 918.48 598.08 912.92 599.00 C 847.91 611.09 783.01 623.75 718.03 636.03 C 715.42 636.53 712.82 637.09 710.23 637.68 C 722.31 590.31 735.28 543.16 747.44 495.80 C 747.57 495.57 747.83 495.11 747.96 494.87 Z"
     id="path3588" />
  <path
     fill="#762257"
     stroke="#762257"
     d=" M 735.72 500.76 C 739.45 498.72 743.33 496.94 747.44 495.80 C 735.28 543.16 722.31 590.31 710.23 637.68 C 702.13 637.70 694.08 636.79 686.02 636.11 C 638.01 632.61 590.02 628.81 542.02 625.19 C 526.20 623.84 510.36 622.82 494.57 621.23 C 503.92 615.65 514.18 611.86 523.73 606.63 C 594.39 571.33 665.08 536.10 735.72 500.76 Z"
     id="path3590" />
  <path
     fill="#6e5386"
     stroke="#6e5386"
     d=" M 912.92 599.00 C 918.48 598.08 924.00 596.31 929.70 596.75 C 897.19 629.89 864.27 662.61 831.57 695.56 C 798.81 728.45 766.18 761.49 733.44 794.41 C 724.22 803.51 715.32 812.95 705.87 821.82 C 705.54 820.57 705.40 819.31 705.47 818.04 C 705.79 800.36 706.68 782.71 706.73 765.03 C 707.54 751.70 707.47 738.34 707.79 725.00 C 708.57 711.00 708.47 696.97 708.84 682.96 C 709.76 667.88 709.27 652.76 710.23 637.68 C 712.82 637.09 715.42 636.53 718.03 636.03 C 783.01 623.75 847.91 611.09 912.92 599.00 Z"
     id="path3592" />
  <path
     fill="#302d65"
     stroke="#302d65"
     d=" M 929.70 596.75 C 929.97 596.57 930.51 596.20 930.78 596.02 L 931.59 595.49 C 951.43 619.70 970.60 644.44 990.12 668.91 C 1011.45 695.90 1033.00 722.70 1054.24 749.76 C 1066.56 765.02 1078.81 780.37 1090.42 796.19 C 1085.11 798.12 1079.38 797.16 1073.89 797.96 C 1048.83 799.58 1023.76 801.08 998.71 802.85 C 990.13 803.48 981.56 804.25 972.97 804.45 C 943.47 806.88 913.91 808.28 884.40 810.59 C 859.46 812.11 834.53 813.83 809.61 815.56 C 780.39 817.24 751.22 819.78 721.98 821.16 C 716.96 821.53 711.94 821.85 706.94 822.28 L 705.87 821.82 C 715.32 812.95 724.22 803.51 733.44 794.41 C 766.18 761.49 798.81 728.45 831.57 695.56 C 864.27 662.61 897.19 629.89 929.70 596.75 Z"
     id="path3594" />
  <path
     fill="#98393c"
     stroke="#98393c"
     d=" M 492.99 621.44 L 493.66 621.19 C 494.10 622.01 494.56 622.83 495.01 623.67 C 497.15 630.64 500.24 637.26 503.01 643.99 C 533.67 718.00 564.28 792.02 595.00 866.00 L 524.99 866.00 C 520.74 863.80 517.30 860.42 513.57 857.49 C 455.60 811.09 397.61 764.74 339.59 718.40 C 323.65 705.52 307.44 692.96 291.67 679.86 C 340.01 665.65 388.49 651.93 436.87 637.85 C 455.57 632.38 474.39 627.27 492.99 621.44 Z"
     id="path3596" />
  <path
     fill="#8a214f"
     stroke="#8a214f"
     d=" M 493.66 621.19 L 494.57 621.23 C 510.36 622.82 526.20 623.84 542.02 625.19 C 590.02 628.81 638.01 632.61 686.02 636.11 C 694.08 636.79 702.13 637.70 710.23 637.68 C 709.27 652.76 709.76 667.88 708.84 682.96 C 708.47 696.97 708.57 711.00 707.79 725.00 C 707.47 738.34 707.54 751.70 706.73 765.03 C 706.68 782.71 705.79 800.36 705.47 818.04 C 705.40 819.31 705.54 820.57 705.87 821.82 L 706.94 822.28 C 706.61 822.31 705.95 822.36 705.62 822.38 L 705.00 822.39 C 698.12 815.15 691.14 807.96 683.50 801.53 C 677.67 796.31 672.64 790.27 666.61 785.28 C 659.66 779.57 653.95 772.54 647.01 766.82 C 640.46 761.39 635.08 754.74 628.54 749.31 C 621.31 743.25 615.21 736.00 608.03 729.89 C 600.83 723.78 594.71 716.53 587.47 710.47 C 581.00 704.99 575.59 698.38 569.04 692.99 C 562.65 687.74 557.46 681.22 551.03 676.01 C 544.26 670.45 538.74 663.56 531.98 658.00 C 525.04 652.29 519.44 645.16 512.42 639.54 C 506.25 634.64 501.66 627.98 495.01 623.67 C 494.56 622.83 494.10 622.01 493.66 621.19 Z"
     id="path3598" />
  <path
     fill="#852041"
     stroke="#852041"
     d=" M 495.01 623.67 C 501.66 627.98 506.25 634.64 512.42 639.54 C 519.44 645.16 525.04 652.29 531.98 658.00 C 538.74 663.56 544.26 670.45 551.03 676.01 C 557.46 681.22 562.65 687.74 569.04 692.99 C 575.59 698.38 581.00 704.99 587.47 710.47 C 594.71 716.53 600.83 723.78 608.03 729.89 C 615.21 736.00 621.31 743.25 628.54 749.31 C 635.08 754.74 640.46 761.39 647.01 766.82 C 653.95 772.54 659.66 779.57 666.61 785.28 C 672.64 790.27 677.67 796.31 683.50 801.53 C 691.14 807.96 698.12 815.15 705.00 822.39 C 697.05 837.20 687.45 851.09 679.70 866.00 L 595.00 866.00 C 564.28 792.02 533.67 718.00 503.01 643.99 C 500.24 637.26 497.15 630.64 495.01 623.67 Z"
     id="path3600" />
  <path
     fill="#b25e34"
     stroke="#b25e34"
     d=" M 187.57 748.42 C 222.21 725.94 256.27 702.54 290.94 680.08 L 291.67 679.86 C 307.44 692.96 323.65 705.52 339.59 718.40 C 397.61 764.74 455.60 811.09 513.57 857.49 C 517.30 860.42 520.74 863.80 524.99 866.00 L 445.53 866.00 C 391.61 841.37 337.68 816.75 283.72 792.22 C 271.24 786.87 259.13 780.71 246.66 775.36 C 227.10 766.65 207.84 757.22 188.10 748.94 L 187.57 748.42 Z"
     id="path3602" />
  <path
     fill="#af6e31"
     stroke="#af6e31"
     d=" M 186.70 750.34 C 187.16 749.85 187.62 749.39 188.10 748.94 C 207.84 757.22 227.10 766.65 246.66 775.36 C 259.13 780.71 271.24 786.87 283.72 792.22 C 337.68 816.75 391.61 841.37 445.53 866.00 L 121.89 866.00 C 143.35 827.37 165.03 788.85 186.70 750.34 Z"
     id="path3604" />
  <path
     fill="#dca033"
     stroke="#dca033"
     d=" M 183.19 751.17 C 184.32 750.75 185.52 750.56 186.70 750.34 C 165.03 788.85 143.35 827.37 121.89 866.00 L 33.89 866.00 C 41.14 855.02 47.23 843.34 54.05 832.10 C 57.93 825.69 61.80 819.26 65.32 812.64 C 66.31 810.88 67.19 809.03 68.57 807.56 C 71.88 805.36 75.68 804.04 79.19 802.23 C 113.90 785.29 148.43 767.99 183.19 751.17 Z"
     id="path3606" />
  <path
     d=" M 1073.89 797.96 C 1079.38 797.16 1085.11 798.12 1090.42 796.19 L 1091.37 795.93 C 1091.82 798.54 1092.55 801.09 1093.27 803.65 C 1099.12 824.41 1104.65 845.25 1110.52 866.00 L 824.35 866.00 C 784.86 851.23 745.20 836.91 705.62 822.38 C 705.95 822.36 706.61 822.31 706.94 822.28 C 711.94 821.85 716.96 821.53 721.98 821.16 C 751.22 819.78 780.39 817.24 809.61 815.56 C 834.53 813.83 859.46 812.11 884.40 810.59 C 913.91 808.28 943.47 806.88 972.97 804.45 C 981.56 804.25 990.13 803.48 998.71 802.85 C 1023.76 801.08 1048.83 799.58 1073.89 797.96 Z"
     id="path3608"
     stroke="#302c59"
     fill="#302c59" />
  <path
     fill="#4b1e36"
     stroke="#4b1e36"
     d=" M 705.00 822.39 L 705.62 822.38 C 745.20 836.91 784.86 851.23 824.35 866.00 L 679.70 866.00 C 687.45 851.09 697.05 837.20 705.00 822.39 Z"
     id="path3610" />
  <path
     d="m 1077.3352,382.8828 78.2914,245.42324 c 2.6386,87.72947 2.7287,238.19878 2.7287,238.19878 L 1110.52,866 c -5.87,-20.75 -11.4,-41.59 -17.25,-62.35 -0.72,-2.56 -1.45,-5.11 -1.9,-7.72 z"
     id="path3576"
     inkscape:connector-curvature="0"
     style="fill:#33579d;stroke:#33579d"
     sodipodi:nodetypes="ccccccc" />
  <path
     style="fill:#34171d;fill-opacity:1"
     d="m 206.29889,172.11957 c -2.42137,-1.62946 -8.09934,-5.93231 -12.6177,-9.56191 -4.51837,-3.62959 -11.18802,-8.73251 -14.82145,-11.33982 -3.63343,-2.60732 -9.92554,-7.31511 -13.98246,-10.46177 -11.35077,-8.80394 -11.40759,-8.84721 -39.85625,-30.34705 C 99.194545,90.890874 87.451053,81.983401 72.65516,70.689345 68.814869,67.757961 58.934449,60.240722 50.698669,53.984369 42.462889,47.728016 32.098438,39.820686 27.666556,36.412524 23.234674,33.004362 15.209229,26.846682 9.8322356,22.728792 l -9.77635372,-7.487073 -0.0025293,-7.7072805 -0.0025292,-7.70728084 209.24138665,0 c 167.18158,0 209.0998,0.22132122 208.537,1.10104012 -3.53896,5.53177212 -8.74625,12.82851522 -20.58671,28.84725122 -4.11807,5.571263 -10.8422,14.817438 -14.94251,20.547055 -4.10031,5.729617 -9.93664,13.855293 -12.96962,18.057058 -5.94719,8.238966 -11.4202,15.852352 -15.62546,21.736189 -1.45337,2.033506 -4.42618,6.141046 -6.60624,9.127869 -9.24285,12.66332 -17.62339,24.29384 -24.22288,33.61659 -11.7125,16.54561 -10.3844,15.63856 -30.82913,21.055 -9.68915,2.56696 -22.37313,5.95387 -28.18662,7.52647 -5.8135,1.5726 -16.11923,4.3476 -22.90164,6.16667 -6.78241,1.81906 -14.90808,4.03692 -18.05706,4.92856 -10.33932,2.92759 -11.68206,2.89384 -16.60245,-0.41734 z"
     id="path3622"
     inkscape:connector-curvature="0"
     transform="scale(0.8,0.8)" />
  <path
     sodipodi:nodetypes="cccc"
     style="fill:#2f1a4b;fill-opacity:1;stroke:#2f1a4b;stroke-opacity:1;stroke-width:1.56;stroke-miterlimit:4;stroke-dasharray:none"
     inkscape:connector-curvature="0"
     id="path4482"
     d="M 921.6279,-6.2663094e-7 1029.9554,48.13521 652.00068,242.14934 Z" />
  <path
     d="M 860.32196,0.70466532 920.92821,0.27843249 654.11467,242.14939 Z"
     id="path4488"
     inkscape:connector-curvature="0"
     style="fill:#5a407d;fill-opacity:1;stroke:#5a407d;stroke-opacity:1"
     sodipodi:nodetypes="cccc" />
  <path
     sodipodi:nodetypes="cccc"
     style="fill:#271e33;fill-opacity:1;stroke:#271e33;stroke-opacity:1"
     inkscape:connector-curvature="0"
     id="path4486"
     d="M 552.3831,4.8776986e-6 861.03159,0.63073193 653.41001,241.44467 Z" />
  <path
     fill="#8c2543"
     stroke="#8c2543"
     d=" M 641.43 246.47 C 645.26 244.70 649.15 243.06 653.23 241.95 C 638.77 277.34 623.58 312.42 608.79 347.68 C 576.94 423.20 545.24 498.80 513.31 574.29 C 506.63 589.87 500.24 605.57 493.66 621.19 L 492.99 621.44 C 462.95 547.38 432.81 473.35 402.68 399.32 C 396.79 385.47 391.83 371.20 385.33 357.61 L 385.05 357.15 C 396.21 352.83 407.03 347.71 418.07 343.09 C 492.53 310.90 566.95 278.61 641.43 246.47 Z"
     id="path3552" />
  <path
     fill="#6a1e32"
     stroke="#6a1e32"
     d=" M 502.49 220.13 C 507.69 220.47 512.81 221.41 517.97 222.11 C 547.50 226.31 577.05 230.43 606.59 234.63 C 622.37 236.74 638.10 239.32 653.93 241.07 L 654.14 241.65 L 653.23 241.95 C 649.15 243.06 645.26 244.70 641.43 246.47 C 566.95 278.61 492.53 310.90 418.07 343.09 C 407.03 347.71 396.21 352.83 385.05 357.15 C 384.77 357.00 384.21 356.69 383.93 356.53 C 384.92 355.47 385.93 354.42 386.89 353.32 C 387.07 353.67 387.42 354.38 387.60 354.74 C 405.68 333.75 423.44 312.47 441.69 291.61 C 461.82 267.67 482.72 244.35 502.49 220.13 Z"
     id="path3540" />
  <path
     fill="#782331"
     stroke="#782331"
     d=" M 456.00 220.05 C 471.50 220.32 487.00 219.84 502.49 220.13 C 482.72 244.35 461.82 267.67 441.69 291.61 C 423.44 312.47 405.68 333.75 387.60 354.74 C 387.42 354.38 387.07 353.67 386.89 353.32 C 395.30 338.36 402.94 322.98 410.68 307.66 C 418.55 293.67 425.08 278.97 432.90 264.94 C 440.60 249.98 447.91 234.81 456.00 220.05 Z"
     id="path3538" />
  <path
     d="M 1075.7526,382.99417 1154.4401,131.03421 1031.2424,48.5394 Z"
     id="path3556"
     inkscape:connector-curvature="0"
     style="fill:#2e4478;stroke:#2e4478;stroke-width:3.48;stroke-miterlimit:4;stroke-dasharray:none"
     sodipodi:nodetypes="cccc" />
  <path
     style="fill:#28355d;fill-opacity:1;stroke-width:0.1;stroke-miterlimit:4;stroke-dasharray:none"
     d="m 1344.9876,477.09 100.4803,-317.0531 -0.4268,633.16014 z"
     id="path3618"
     inkscape:connector-curvature="0"
     sodipodi:nodetypes="cccc"
     transform="scale(0.8,0.8)" />
  <path
     sodipodi:nodetypes="cccc"
     style="fill:#151f35;fill-opacity:1;stroke:#151f35;stroke-opacity:1;stroke-width:1.48;stroke-miterlimit:4;stroke-dasharray:none"
     inkscape:connector-curvature="0"
     id="path4496"
     d="M 1030.7791,47.840145 1154.6162,130.15338 1154.3984,0.64806397 Z" />
  <path
     d="M 1030.1464,47.646127 1154.8772,0.27839343 922.23997,0.44901276 Z"
     id="path4498"
     inkscape:connector-curvature="0"
     style="fill:#1c1334;fill-opacity:1;stroke:#1c1334;stroke-opacity:1;stroke-width:1.32;stroke-miterlimit:4;stroke-dasharray:none"
     sodipodi:nodetypes="cccc" />
</svg>
