<?xml version="1.0" encoding="UTF-8" standalone="no"?>
<svg width="503px" height="503px" viewBox="0 0 503 503" version="1.1" xmlns="http://www.w3.org/2000/svg" xmlns:xlink="http://www.w3.org/1999/xlink" xmlns:sketch="http://www.bohemiancoding.com/sketch/ns">
    <!-- Generator: Sketch 3.3.3 (12081) - http://www.bohemiancoding.com/sketch -->
    <title>server-max</title>
    <desc>Created with Sketch.</desc>
    <defs>
        <circle id="path-1" cx="250" cy="250" r="250"></circle>
    </defs>
    <g id="Page-1" stroke="none" stroke-width="1" fill="none" fill-rule="evenodd" sketch:type="MSPage">
        <g id="server" sketch:type="MSLayerGroup">
            <mask id="mask-2" sketch:name="Mask" fill="white">
                <use xlink:href="#path-1"></use>
            </mask>
            <use id="Mask" fill="#8ACA41" sketch:type="MSShapeGroup" xlink:href="#path-1"></use>
            <path d="M83.2695313,351.804688 L83.2695313,160.757812 L250.625,67.2265625 L416.601563,149.472656 L501.761719,233.457031 C501.761719,233.457031 523.242185,502.152344 238.996094,502.152344 C230.410159,502.152344 83.2695313,351.804688 83.2695313,351.804688 Z" id="Path-3" fill-opacity="0.2" fill="#4A4A4A" sketch:type="MSShapeGroup" mask="url(#mask-2)"></path>
            <g id="node" mask="url(#mask-2)" fill="#FFFFFF" sketch:type="MSShapeGroup">
                <g transform="translate(75.000000, 57.226562)" id="Shape">
                    <path d="M159.283019,4.89504717 C168.800707,-0.553066038 181.199293,-0.577830188 190.708726,4.89504717 C238.553066,31.9292453 286.413915,58.9221698 334.25,85.9728774 C343.247641,91.0412736 349.265331,101.054245 349.174528,111.42217 L349.174528,274.073114 C349.240566,284.870283 342.628538,295.122641 333.135614,300.075472 C285.448114,326.961085 237.785378,353.879717 190.106133,380.765331 C180.390331,386.320755 167.744104,385.891509 158.333726,379.882076 C144.036557,371.59434 129.714623,363.347878 115.417453,355.068396 C112.495283,353.326652 109.201651,351.939859 107.137972,349.108491 C108.962264,346.648585 112.222877,346.34316 114.872642,345.270047 C120.840802,343.371462 126.321934,340.325472 131.803066,337.370283 C133.189858,336.420991 134.882076,336.784198 136.211085,337.634434 C148.436321,344.642688 160.554245,351.857312 172.820755,358.799528 C175.4375,360.310141 178.087264,358.304245 180.324293,357.057783 C227.120283,330.609669 273.974057,304.260614 320.761793,277.804245 C322.495283,276.970519 323.452831,275.129717 323.3125,273.231133 C323.345519,219.575472 323.320755,165.911557 323.329009,112.255896 C323.527122,110.101415 322.28066,108.120283 320.332547,107.237028 C272.810141,80.4752359 225.3125,53.6721698 177.798348,26.9021226 C176.097878,25.7464622 173.902122,25.7382076 172.201652,26.8938679 C124.6875,53.6721698 77.1981133,80.5 29.6839622,107.261792 C27.7441038,108.145047 26.4398585,110.09316 26.6709905,112.255896 C26.6792453,165.911557 26.6709905,219.575472 26.6709905,273.239386 C26.5058962,275.137972 27.5294812,276.9375 29.2547169,277.754717 C41.9339622,284.944576 54.6297169,292.084905 67.3172169,299.25 C74.4658019,303.096698 83.240566,305.383255 91.115566,302.436321 C98.0660378,299.943396 102.936321,292.852595 102.804245,285.472878 C102.870283,232.130896 102.771226,178.78066 102.853774,125.446934 C102.680424,123.07783 104.925708,121.121462 107.228774,121.34434 C113.320755,121.303066 119.420991,121.261792 125.512972,121.360849 C128.055424,121.303066 129.805424,123.853774 129.491745,126.239387 C129.466981,179.919812 129.557783,233.600236 129.450472,287.28066 C129.466981,301.586085 123.589623,317.154481 110.357311,324.154481 C94.0542453,332.599057 73.9044812,330.807783 57.7995283,322.709905 C43.8573114,315.751179 30.5507076,307.537736 16.8561321,300.083726 C7.3384434,295.15566 0.759433962,284.862028 0.825471698,274.073114 L0.825471698,111.42217 C0.726415095,100.839623 6.98349057,90.6450472 16.2617924,85.6509434 C63.9410378,58.740566 111.612028,31.8136793 159.283019,4.89504717 L159.283019,4.89504717 L159.283019,4.89504717 Z"></path>
                    <path d="M200.878538,117.563679 C221.672169,116.226415 243.935141,116.771226 262.648585,127.01533 C277.135614,134.865566 285.167453,151.341981 285.423348,167.438679 C285.018867,169.609669 282.748821,170.806604 280.676886,170.658019 C274.642688,170.649764 268.608491,170.740566 262.574293,170.616745 C260.015331,170.715802 258.529481,168.354953 258.207547,166.09316 C256.474057,158.391509 252.272405,150.764152 245.024764,147.049528 C233.897405,141.477595 220.995283,141.758255 208.860848,141.873821 C200.003538,142.34434 190.477595,143.112028 182.974057,148.320755 C177.212264,152.266509 175.462264,160.232312 177.517688,166.646226 C179.457547,171.252359 184.773585,172.738207 189.123821,174.108491 C214.185141,180.662736 240.740566,180.010614 265.323114,188.636793 C275.501179,192.153302 285.456367,198.988207 288.939859,209.645047 C293.496462,223.925707 291.498821,240.996462 281.337264,252.462264 C273.099057,261.897405 261.096698,267.03184 249.127359,269.821934 C233.204009,273.371462 216.678066,273.462264 200.507076,271.885614 C185.301886,270.152122 169.477595,266.15684 157.739386,255.797169 C147.701652,247.080188 142.798348,233.501179 143.285378,220.392688 C143.400943,218.180424 145.604953,216.636793 147.726415,216.818396 C153.801886,216.768867 159.877359,216.752359 165.952831,216.826652 C168.379717,216.653302 170.179245,218.75 170.303066,221.036557 C171.425707,228.375 174.182783,236.076652 180.580188,240.426886 C192.929245,248.392688 208.423348,247.847878 222.563679,248.070755 C234.277122,247.550707 247.426886,247.393867 256.985848,239.650943 C262.029481,235.234669 263.523585,227.846698 262.161557,221.490566 C260.683962,216.125 255.070755,213.623821 250.25,211.989386 C225.510614,204.163915 198.658019,207.003538 174.158019,198.154481 C164.211085,194.637972 154.59434,187.992924 150.772405,177.773585 C145.439859,163.311321 147.883255,145.423348 159.109669,134.345519 C170.055424,123.325472 185.854953,119.082547 200.878538,117.563679 L200.878538,117.563679 L200.878538,117.563679 Z"></path>
                </g>
            </g>
        </g>
    </g>
</svg>