<?xml version="1.0" encoding="UTF-8" ?>
<!DOCTYPE svg PUBLIC "-//W3C//DTD SVG 1.1//EN" "http://www.w3.org/Graphics/SVG/1.1/DTD/svg11.dtd">
<svg width="1155pt" height="866pt" viewBox="0 0 1155 866" version="1.1" xmlns="http://www.w3.org/2000/svg">
<path fill="#1c1417" stroke="#1c1417" d=" M 0.00 0.00 L 335.19 0.00 C 326.87 12.60 317.35 24.37 308.71 36.76 C 291.06 61.10 273.47 85.47 255.90 109.86 C 252.88 113.81 250.56 119.20 245.16 120.26 C 225.02 125.81 204.79 131.03 184.64 136.55 C 179.42 137.67 174.39 139.91 169.01 140.15 C 164.52 138.80 161.20 135.23 157.54 132.48 C 147.54 124.10 136.52 117.03 126.51 108.66 C 113.93 99.21 101.57 89.47 88.80 80.28 C 59.22 57.70 29.59 35.16 0.00 12.58 L 0.00 0.00 Z" />
<path fill="#33171d" stroke="#33171d" d=" M 335.19 0.00 L 362.03 0.00 C 371.24 20.30 379.62 40.97 388.52 61.41 C 402.04 92.93 415.27 124.56 428.93 156.01 C 432.20 162.97 434.67 170.27 437.86 177.27 C 441.38 184.85 444.43 192.63 447.69 200.32 C 449.65 205.85 453.11 211.57 451.22 217.60 C 410.72 197.78 369.94 178.53 329.36 158.87 C 302.42 146.07 275.70 132.83 248.54 120.49 C 225.39 154.01 202.38 187.63 179.20 221.13 C 176.06 225.30 173.58 229.95 170.09 233.86 C 168.12 228.08 169.21 221.94 168.99 215.97 C 168.86 191.10 169.31 166.21 168.77 141.36 C 163.12 140.83 157.42 141.20 151.79 140.40 C 144.94 139.44 138.00 140.62 131.15 139.65 C 119.03 138.05 106.75 139.98 94.62 138.47 C 85.11 137.30 75.52 138.58 66.00 137.80 C 52.39 136.16 38.66 137.53 25.01 136.88 C 17.13 136.04 9.18 135.54 1.26 136.23 C 0.92 139.54 0.85 142.86 0.85 146.18 L 0.00 145.56 L 0.00 12.58 C 29.59 35.16 59.22 57.70 88.80 80.28 C 101.57 89.47 113.93 99.21 126.51 108.66 C 136.52 117.03 147.54 124.10 157.54 132.48 C 161.20 135.23 164.52 138.80 169.01 140.15 C 174.39 139.91 179.42 137.67 184.64 136.55 C 204.79 131.03 225.02 125.81 245.16 120.26 C 250.56 119.20 252.88 113.81 255.90 109.86 C 273.47 85.47 291.06 61.10 308.71 36.76 C 317.35 24.37 326.87 12.60 335.19 0.00 Z" />
<path fill="#451924" stroke="#451924" d=" M 362.03 0.00 L 379.74 0.00 C 393.01 12.54 407.07 24.23 420.69 36.39 C 481.29 89.76 541.83 143.18 602.50 196.46 C 617.22 209.41 631.86 222.45 646.49 235.49 C 648.64 237.44 651.01 239.11 653.41 240.74 L 653.93 241.07 C 638.10 239.32 622.37 236.74 606.59 234.63 C 577.05 230.43 547.50 226.31 517.97 222.11 C 512.81 221.41 507.69 220.47 502.49 220.13 C 487.00 219.84 471.50 220.32 456.00 220.05 C 454.37 219.30 452.80 218.44 451.22 217.60 C 453.11 211.57 449.65 205.85 447.69 200.32 C 444.43 192.63 441.38 184.85 437.86 177.27 C 434.67 170.27 432.20 162.97 428.93 156.01 C 415.27 124.56 402.04 92.93 388.52 61.41 C 379.62 40.97 371.24 20.30 362.03 0.00 Z" />
<path fill="#20141d" stroke="#20141d" d=" M 379.74 0.00 L 588.61 0.00 C 595.62 0.46 602.63 -0.75 609.60 0.43 C 612.99 -0.05 616.18 1.10 619.49 1.46 C 624.82 0.56 629.85 3.06 635.19 2.39 C 639.04 4.15 643.31 2.65 647.17 4.23 C 649.86 4.87 652.73 3.71 655.38 4.83 C 658.92 6.32 662.82 4.46 666.37 5.85 C 669.58 7.23 673.14 5.54 676.39 6.81 C 679.59 8.08 683.12 6.66 686.34 7.86 C 689.27 9.10 692.53 7.67 695.48 8.89 C 698.99 10.16 702.81 8.57 706.36 9.74 C 709.28 10.91 712.50 9.85 715.44 10.92 C 718.64 12.13 722.11 10.68 725.36 11.59 C 729.32 13.09 733.64 11.70 737.59 13.37 C 742.93 12.59 747.93 14.83 753.25 14.42 C 757.67 16.21 762.50 14.48 766.89 16.39 C 770.39 16.12 773.76 16.71 777.17 17.42 C 782.31 16.55 787.14 18.70 792.26 18.47 C 796.46 20.29 801.07 18.48 805.30 20.09 C 807.96 20.82 810.84 19.84 813.46 20.96 C 817.01 22.18 820.87 20.47 824.42 21.87 C 827.65 23.14 831.20 21.61 834.45 22.81 C 837.65 24.10 841.17 22.69 844.41 23.82 C 847.58 25.18 851.16 23.53 854.31 25.03 C 856.89 26.06 859.75 24.68 862.34 25.83 C 865.92 27.18 869.82 25.53 873.43 26.76 C 876.32 27.97 879.51 26.77 882.43 27.77 C 885.61 29.24 889.19 27.51 892.44 28.79 C 895.63 30.12 899.15 28.63 902.38 29.72 C 905.59 31.14 909.17 29.61 912.42 30.86 C 915.63 32.06 919.12 30.65 922.35 31.81 C 926.31 33.28 930.74 31.22 934.58 33.40 C 938.16 33.19 941.72 33.12 945.13 34.49 C 950.31 33.51 955.17 35.97 960.36 35.45 C 963.88 37.01 967.79 35.70 971.33 37.08 C 974.64 38.01 978.19 36.56 981.50 37.73 C 984.99 39.12 988.87 37.54 992.38 38.99 C 995.00 39.87 997.87 38.78 1000.49 39.80 C 1004.02 41.23 1007.93 39.47 1011.49 40.82 C 1015.03 42.28 1019.00 40.33 1022.52 41.98 C 1025.94 43.66 1031.07 39.84 1032.97 44.32 C 1023.81 48.03 1015.55 53.49 1006.63 57.68 C 1000.19 60.77 994.09 64.50 987.70 67.68 C 982.39 70.35 976.99 72.87 971.82 75.81 C 963.00 80.85 953.64 84.86 944.80 89.86 C 936.64 94.49 927.99 98.21 919.82 102.83 C 910.78 107.94 901.25 112.10 892.20 117.18 C 883.79 121.89 874.93 125.74 866.57 130.52 C 858.82 134.96 850.54 138.37 842.81 142.84 C 834.19 147.72 825.07 151.65 816.44 156.51 C 808.07 161.28 799.21 165.12 790.81 169.83 C 782.16 174.68 773.08 178.70 764.41 183.52 C 754.76 188.93 744.62 193.40 735.03 198.93 C 726.43 203.32 717.73 207.54 709.32 212.29 C 690.54 221.50 672.37 231.90 653.41 240.74 C 651.01 239.11 648.64 237.44 646.49 235.49 C 631.86 222.45 617.22 209.41 602.50 196.46 C 541.83 143.18 481.29 89.76 420.69 36.39 C 407.07 24.23 393.01 12.54 379.74 0.00 Z" />
<path fill="#28355d" stroke="#28355d" d=" M 588.61 0.00 L 1137.80 0.00 C 1138.39 4.73 1137.03 9.38 1136.43 14.03 C 1130.43 51.65 1124.62 89.30 1118.53 126.91 C 1117.37 133.53 1117.17 140.26 1116.89 146.95 C 1116.61 149.24 1118.56 151.29 1117.82 153.54 C 1116.71 157.42 1114.60 161.58 1116.27 165.57 C 1114.29 170.22 1117.29 175.41 1114.82 179.89 C 1114.90 182.90 1116.43 185.98 1115.19 188.98 C 1113.91 192.29 1113.33 195.79 1113.21 199.33 C 1113.52 200.04 1113.83 200.74 1114.17 201.47 C 1112.77 203.49 1112.72 205.85 1112.74 208.20 C 1111.61 211.02 1112.03 214.18 1110.77 216.96 C 1111.52 216.01 1112.32 215.09 1113.14 214.18 C 1113.44 218.16 1112.91 222.11 1110.30 225.25 C 1110.70 225.60 1111.12 225.95 1111.56 226.29 C 1110.30 229.98 1110.82 233.81 1111.32 237.57 C 1110.68 238.53 1110.32 239.63 1110.08 240.74 C 1108.87 243.75 1111.35 247.01 1109.69 249.88 C 1108.50 252.06 1109.29 254.49 1109.40 256.79 C 1108.08 259.48 1106.70 262.87 1108.93 265.47 C 1106.09 268.19 1108.70 272.18 1107.37 275.44 C 1106.12 278.74 1106.24 282.24 1106.46 285.69 C 1106.77 289.48 1103.55 293.32 1106.01 296.88 C 1105.82 298.48 1104.91 299.95 1104.37 301.47 C 1104.84 302.21 1105.33 302.97 1105.83 303.73 C 1105.03 306.00 1103.60 308.22 1104.17 310.72 C 1104.71 313.83 1102.11 316.49 1102.70 319.61 C 1103.46 323.17 1101.84 326.71 1102.72 330.25 C 1103.39 332.20 1101.44 333.84 1102.06 335.75 C 1102.32 337.66 1103.53 340.23 1101.36 341.47 L 1099.49 340.40 C 1099.97 341.65 1100.49 342.91 1101.06 344.14 C 1100.20 347.00 1100.79 350.02 1101.36 352.88 C 1099.40 353.72 1100.17 355.12 1100.95 356.57 C 1099.90 359.83 1098.90 363.23 1100.04 366.64 C 1100.85 368.31 1099.17 369.32 1098.54 370.62 C 1098.22 373.06 1099.86 375.54 1098.90 377.97 C 1098.18 379.84 1097.32 381.79 1097.86 383.84 C 1098.47 386.25 1097.19 388.49 1096.64 390.78 C 1096.54 393.46 1098.00 395.95 1097.93 398.65 C 1097.91 400.60 1096.10 401.82 1095.69 403.64 C 1096.07 405.61 1097.68 407.42 1097.18 409.55 C 1096.51 412.30 1094.72 414.75 1094.61 417.64 C 1094.43 420.11 1095.17 422.50 1095.31 424.95 C 1094.89 426.57 1093.99 428.02 1093.56 429.64 C 1093.04 432.75 1094.72 435.89 1093.57 438.94 C 1092.03 443.40 1092.54 448.13 1091.74 452.71 C 1091.32 457.05 1092.65 461.39 1092.10 465.68 C 1090.68 464.31 1089.51 462.71 1088.67 460.94 C 1085.62 438.04 1081.71 415.26 1078.83 392.35 C 1078.64 389.71 1078.19 387.10 1077.56 384.54 C 1077.44 384.18 1077.20 383.46 1077.08 383.10 C 1074.76 377.38 1074.84 371.14 1073.79 365.16 C 1059.55 261.09 1045.41 157.01 1030.96 52.97 C 1030.74 50.97 1030.80 48.95 1030.97 46.94 C 1031.47 46.29 1032.47 44.98 1032.97 44.32 C 1031.07 39.84 1025.94 43.66 1022.52 41.98 C 1019.00 40.33 1015.03 42.28 1011.49 40.82 C 1007.93 39.47 1004.02 41.23 1000.49 39.80 C 997.87 38.78 995.00 39.87 992.38 38.99 C 988.87 37.54 984.99 39.12 981.50 37.73 C 978.19 36.56 974.64 38.01 971.33 37.08 C 967.79 35.70 963.88 37.01 960.36 35.45 C 955.17 35.97 950.31 33.51 945.13 34.49 C 941.72 33.12 938.16 33.19 934.58 33.40 C 930.74 31.22 926.31 33.28 922.35 31.81 C 919.12 30.65 915.63 32.06 912.42 30.86 C 909.17 29.61 905.59 31.14 902.38 29.72 C 899.15 28.63 895.63 30.12 892.44 28.79 C 889.19 27.51 885.61 29.24 882.43 27.77 C 879.51 26.77 876.32 27.97 873.43 26.76 C 869.82 25.53 865.92 27.18 862.34 25.83 C 859.75 24.68 856.89 26.06 854.31 25.03 C 851.16 23.53 847.58 25.18 844.41 23.82 C 841.17 22.69 837.65 24.10 834.45 22.81 C 831.20 21.61 827.65 23.14 824.42 21.87 C 820.87 20.47 817.01 22.18 813.46 20.96 C 810.84 19.84 807.96 20.82 805.30 20.09 C 801.07 18.48 796.46 20.29 792.26 18.47 C 787.14 18.70 782.31 16.55 777.17 17.42 C 773.76 16.71 770.39 16.12 766.89 16.39 C 762.50 14.48 757.67 16.21 753.25 14.42 C 747.93 14.83 742.93 12.59 737.59 13.37 C 733.64 11.70 729.32 13.09 725.36 11.59 C 722.11 10.68 718.64 12.13 715.44 10.92 C 712.50 9.85 709.28 10.91 706.36 9.74 C 702.81 8.57 698.99 10.16 695.48 8.89 C 692.53 7.67 689.27 9.10 686.34 7.86 C 683.12 6.66 679.59 8.08 676.39 6.81 C 673.14 5.54 669.58 7.23 666.37 5.85 C 662.82 4.46 658.92 6.32 655.38 4.83 C 652.73 3.71 649.86 4.87 647.17 4.23 C 643.31 2.65 639.04 4.15 635.19 2.39 C 629.85 3.06 624.82 0.56 619.49 1.46 C 616.18 1.10 612.99 -0.05 609.60 0.43 C 602.63 -0.75 595.62 0.46 588.61 0.00 Z" />
<path fill="#2b3b68" stroke="#2b3b68" d=" M 1137.80 0.00 L 1155.00 0.00 L 1155.00 267.39 C 1153.34 272.80 1153.91 278.47 1154.03 284.02 C 1153.80 322.01 1153.87 360.00 1153.77 397.98 C 1153.70 403.14 1154.33 408.44 1152.78 413.45 C 1151.97 416.29 1150.87 419.24 1151.53 422.23 C 1151.88 423.89 1151.95 425.60 1151.58 427.26 C 1149.13 435.73 1151.39 444.64 1150.33 453.28 C 1149.68 457.05 1149.69 461.60 1146.37 464.17 C 1145.71 452.40 1146.51 440.58 1145.68 428.82 C 1144.43 413.90 1145.48 398.90 1144.78 383.96 C 1143.70 372.60 1144.21 361.17 1143.68 349.78 C 1142.41 352.71 1141.98 355.87 1142.07 359.03 C 1141.42 368.03 1140.88 377.04 1139.66 385.99 C 1139.06 389.29 1140.67 392.61 1139.72 395.87 C 1137.39 403.57 1137.83 411.71 1136.78 419.62 C 1136.09 431.31 1134.81 442.97 1134.37 454.66 C 1132.68 460.46 1133.36 466.45 1133.82 472.35 C 1133.22 472.12 1132.63 471.90 1132.05 471.69 C 1133.36 477.97 1130.57 484.00 1131.15 490.30 C 1130.10 497.60 1129.59 504.95 1129.38 512.32 C 1127.88 520.07 1128.90 528.01 1127.40 535.75 C 1126.97 543.86 1126.38 552.00 1125.08 560.03 C 1124.46 564.71 1124.20 569.44 1124.35 574.16 C 1124.81 579.30 1122.00 584.05 1122.47 589.20 C 1122.88 594.93 1121.02 600.53 1121.52 606.26 C 1121.81 610.63 1120.80 614.93 1120.30 619.25 C 1119.71 626.57 1118.24 633.82 1118.26 641.20 C 1118.34 644.70 1117.77 648.17 1116.87 651.56 C 1107.46 588.02 1097.95 524.50 1088.67 460.94 C 1089.51 462.71 1090.68 464.31 1092.10 465.68 C 1092.65 461.39 1091.32 457.05 1091.74 452.71 C 1092.54 448.13 1092.03 443.40 1093.57 438.94 C 1094.72 435.89 1093.04 432.75 1093.56 429.64 C 1093.99 428.02 1094.89 426.57 1095.31 424.95 C 1095.17 422.50 1094.43 420.11 1094.61 417.64 C 1094.72 414.75 1096.51 412.30 1097.18 409.55 C 1097.68 407.42 1096.07 405.61 1095.69 403.64 C 1096.10 401.82 1097.91 400.60 1097.93 398.65 C 1098.00 395.95 1096.54 393.46 1096.64 390.78 C 1097.19 388.49 1098.47 386.25 1097.86 383.84 C 1097.32 381.79 1098.18 379.84 1098.90 377.97 C 1099.86 375.54 1098.22 373.06 1098.54 370.62 C 1099.17 369.32 1100.85 368.31 1100.04 366.64 C 1098.90 363.23 1099.90 359.83 1100.95 356.57 C 1100.17 355.12 1099.40 353.72 1101.36 352.88 C 1100.79 350.02 1100.20 347.00 1101.06 344.14 C 1100.49 342.91 1099.97 341.65 1099.49 340.40 L 1101.36 341.47 C 1103.53 340.23 1102.32 337.66 1102.06 335.75 C 1101.44 333.84 1103.39 332.20 1102.72 330.25 C 1101.84 326.71 1103.46 323.17 1102.70 319.61 C 1102.11 316.49 1104.71 313.83 1104.17 310.72 C 1103.60 308.22 1105.03 306.00 1105.83 303.73 C 1105.33 302.97 1104.84 302.21 1104.37 301.47 C 1104.91 299.95 1105.82 298.48 1106.01 296.88 C 1103.55 293.32 1106.77 289.48 1106.46 285.69 C 1106.24 282.24 1106.12 278.74 1107.37 275.44 C 1108.70 272.18 1106.09 268.19 1108.93 265.47 C 1106.70 262.87 1108.08 259.48 1109.40 256.79 C 1109.29 254.49 1108.50 252.06 1109.69 249.88 C 1111.35 247.01 1108.87 243.75 1110.08 240.74 C 1110.32 239.63 1110.68 238.53 1111.32 237.57 C 1110.82 233.81 1110.30 229.98 1111.56 226.29 C 1111.12 225.95 1110.70 225.60 1110.30 225.25 C 1112.91 222.11 1113.44 218.16 1113.14 214.18 C 1112.32 215.09 1111.52 216.01 1110.77 216.96 C 1112.03 214.18 1111.61 211.02 1112.74 208.20 C 1112.72 205.85 1112.77 203.49 1114.17 201.47 C 1113.83 200.74 1113.52 200.04 1113.21 199.33 C 1113.33 195.79 1113.91 192.29 1115.19 188.98 C 1116.43 185.98 1114.90 182.90 1114.82 179.89 C 1117.29 175.41 1114.29 170.22 1116.27 165.57 C 1114.60 161.58 1116.71 157.42 1117.82 153.54 C 1118.56 151.29 1116.61 149.24 1116.89 146.95 C 1117.17 140.26 1117.37 133.53 1118.53 126.91 C 1124.62 89.30 1130.43 51.65 1136.43 14.03 C 1137.03 9.38 1138.39 4.73 1137.80 0.00 Z" />
<path fill="#2a192c" stroke="#2a192c" d=" M 1006.63 57.68 C 1015.55 53.49 1023.81 48.03 1032.97 44.32 C 1032.47 44.98 1031.47 46.29 1030.97 46.94 C 1029.97 47.98 1028.82 48.95 1028.39 50.37 C 1004.04 112.21 979.42 173.96 955.13 235.83 C 938.74 236.33 922.33 235.94 905.96 236.79 C 887.63 237.17 869.28 236.86 850.96 237.79 C 815.63 238.00 780.33 239.27 744.99 239.30 C 723.02 240.47 700.99 239.67 679.02 240.84 C 670.91 240.99 662.78 240.53 654.69 241.35 L 653.93 241.07 L 653.41 240.74 C 672.37 231.90 690.54 221.50 709.32 212.29 C 717.73 207.54 726.43 203.32 735.03 198.93 C 744.62 193.40 754.76 188.93 764.41 183.52 C 773.08 178.70 782.16 174.68 790.81 169.83 C 799.21 165.12 808.07 161.28 816.44 156.51 C 825.07 151.65 834.19 147.72 842.81 142.84 C 850.54 138.37 858.82 134.96 866.57 130.52 C 874.93 125.74 883.79 121.89 892.20 117.18 C 901.25 112.10 910.78 107.94 919.82 102.83 C 927.99 98.21 936.64 94.49 944.80 89.86 C 953.64 84.86 963.00 80.85 971.82 75.81 C 976.99 72.87 982.39 70.35 987.70 67.68 C 994.09 64.50 1000.19 60.77 1006.63 57.68 Z" />
<path fill="#373d72" stroke="#373d72" d=" M 1028.39 50.37 C 1028.82 48.95 1029.97 47.98 1030.97 46.94 C 1030.80 48.95 1030.74 50.97 1030.96 52.97 C 1045.41 157.01 1059.55 261.09 1073.79 365.16 C 1074.84 371.14 1074.76 377.38 1077.08 383.10 C 1076.62 383.01 1075.69 382.82 1075.23 382.73 C 1058.31 369.11 1040.83 356.22 1023.74 342.82 C 1011.66 333.52 999.77 323.96 987.45 314.98 C 983.82 304.14 978.83 293.83 974.86 283.12 C 968.15 267.69 962.56 251.78 955.37 236.56 L 955.13 235.83 C 979.42 173.96 1004.04 112.21 1028.39 50.37 Z" />
<path fill="#5e1d2d" stroke="#5e1d2d" d=" M 248.54 120.49 C 275.70 132.83 302.42 146.07 329.36 158.87 C 369.94 178.53 410.72 197.78 451.22 217.60 C 452.80 218.44 454.37 219.30 456.00 220.05 C 447.91 234.81 440.60 249.98 432.90 264.94 C 425.08 278.97 418.55 293.67 410.68 307.66 C 402.94 322.98 395.30 338.36 386.89 353.32 C 385.93 354.42 384.92 355.47 383.93 356.53 C 313.68 316.89 243.41 277.30 173.05 237.86 C 171.68 237.14 170.22 236.61 168.79 236.06 L 168.47 235.92 L 168.67 235.60 C 169.13 235.01 169.60 234.43 170.09 233.86 C 173.58 229.95 176.06 225.30 179.20 221.13 C 202.38 187.63 225.39 154.01 248.54 120.49 Z" />
<path fill="#34161d" stroke="#34161d" d=" M 1.26 136.23 C 9.18 135.54 17.13 136.04 25.01 136.88 C 38.66 137.53 52.39 136.16 66.00 137.80 C 75.52 138.58 85.11 137.30 94.62 138.47 C 106.75 139.98 119.03 138.05 131.15 139.65 C 138.00 140.62 144.94 139.44 151.79 140.40 C 157.42 141.20 163.12 140.83 168.77 141.36 C 169.31 166.21 168.86 191.10 168.99 215.97 C 169.21 221.94 168.12 228.08 170.09 233.86 C 169.60 234.43 169.13 235.01 168.67 235.60 C 118.11 208.74 67.61 181.78 17.01 155.01 C 11.69 151.95 6.04 149.47 0.85 146.18 C 0.85 142.86 0.92 139.54 1.26 136.23 Z" />
<path fill="#591224" stroke="#591224" d=" M 0.00 145.56 L 0.85 146.18 C 6.04 149.47 11.69 151.95 17.01 155.01 C 67.61 181.78 118.11 208.74 168.67 235.60 L 168.47 235.92 C 158.54 256.63 147.43 276.74 137.25 297.33 C 130.97 308.85 125.23 320.65 119.24 332.32 C 111.97 345.53 105.72 359.28 98.17 372.35 C 87.07 351.37 77.02 329.85 66.26 308.69 C 44.86 266.29 23.99 223.62 2.53 181.25 C 1.51 179.16 0.65 176.99 0.00 174.76 L 0.00 145.56 Z" />
<path fill="#7c1f2d" stroke="#7c1f2d" d=" M 0.00 174.76 C 0.65 176.99 1.51 179.16 2.53 181.25 C 23.99 223.62 44.86 266.29 66.26 308.69 C 77.02 329.85 87.07 351.37 98.17 372.35 C 98.36 372.68 98.75 373.36 98.94 373.69 C 91.33 380.53 84.90 388.50 77.97 396.00 C 61.63 414.26 45.43 432.67 28.82 450.66 C 28.26 450.14 27.71 449.62 27.15 449.10 C 18.30 389.50 9.22 329.92 0.00 270.37 L 0.00 174.76 Z" />
<path fill="#782331" stroke="#782331" d=" M 456.00 220.05 C 471.50 220.32 487.00 219.84 502.49 220.13 C 482.72 244.35 461.82 267.67 441.69 291.61 C 423.44 312.47 405.68 333.75 387.60 354.74 C 387.42 354.38 387.07 353.67 386.89 353.32 C 395.30 338.36 402.94 322.98 410.68 307.66 C 418.55 293.67 425.08 278.97 432.90 264.94 C 440.60 249.98 447.91 234.81 456.00 220.05 Z" />
<path fill="#6a1e32" stroke="#6a1e32" d=" M 502.49 220.13 C 507.69 220.47 512.81 221.41 517.97 222.11 C 547.50 226.31 577.05 230.43 606.59 234.63 C 622.37 236.74 638.10 239.32 653.93 241.07 L 654.14 241.65 L 653.23 241.95 C 649.15 243.06 645.26 244.70 641.43 246.47 C 566.95 278.61 492.53 310.90 418.07 343.09 C 407.03 347.71 396.21 352.83 385.05 357.15 C 384.77 357.00 384.21 356.69 383.93 356.53 C 384.92 355.47 385.93 354.42 386.89 353.32 C 387.07 353.67 387.42 354.38 387.60 354.74 C 405.68 333.75 423.44 312.47 441.69 291.61 C 461.82 267.67 482.72 244.35 502.49 220.13 Z" />
<path fill="#702434" stroke="#702434" d=" M 168.47 235.92 L 168.79 236.06 C 175.41 251.25 182.83 266.07 189.76 281.13 C 211.22 326.66 232.62 372.23 254.13 417.75 C 255.13 419.85 256.07 422.02 256.57 424.31 C 256.25 424.55 255.62 425.02 255.30 425.26 C 248.87 422.46 242.13 420.53 235.46 418.43 C 206.67 408.93 177.90 399.37 149.12 389.86 C 133.60 384.99 118.31 379.38 102.67 374.95 C 101.43 374.52 100.18 374.10 98.94 373.69 C 98.75 373.36 98.36 372.68 98.17 372.35 C 105.72 359.28 111.97 345.53 119.24 332.32 C 125.23 320.65 130.97 308.85 137.25 297.33 C 147.43 276.74 158.54 256.63 168.47 235.92 Z" />
<path fill="#7c3d45" stroke="#7c3d45" d=" M 168.79 236.06 C 170.22 236.61 171.68 237.14 173.05 237.86 C 243.41 277.30 313.68 316.89 383.93 356.53 C 384.21 356.69 384.77 357.00 385.05 357.15 L 385.33 357.61 C 342.59 380.19 300.32 403.65 257.58 426.22 C 256.82 425.88 256.06 425.56 255.30 425.26 C 255.62 425.02 256.25 424.55 256.57 424.31 C 256.07 422.02 255.13 419.85 254.13 417.75 C 232.62 372.23 211.22 326.66 189.76 281.13 C 182.83 266.07 175.41 251.25 168.79 236.06 Z" />
<path fill="#381a3d" stroke="#381a3d" d=" M 905.96 236.79 C 922.33 235.94 938.74 236.33 955.13 235.83 L 955.37 236.56 C 952.54 243.73 950.85 251.27 948.66 258.64 C 941.23 284.28 934.22 310.05 926.76 335.68 L 926.31 336.13 C 909.44 329.45 892.02 324.31 875.02 317.98 C 804.56 293.50 734.10 269.01 663.62 244.58 C 660.60 243.62 657.64 242.48 654.69 241.35 C 662.78 240.53 670.91 240.99 679.02 240.84 C 700.99 239.67 723.02 240.47 744.99 239.30 C 780.33 239.27 815.63 238.00 850.96 237.79 C 869.28 236.86 887.63 237.17 905.96 236.79 Z" />
<path fill="#382a56" stroke="#382a56" d=" M 955.37 236.56 C 962.56 251.78 968.15 267.69 974.86 283.12 C 978.83 293.83 983.82 304.14 987.45 314.98 C 967.51 322.06 947.49 328.92 927.56 336.00 L 926.76 335.68 C 934.22 310.05 941.23 284.28 948.66 258.64 C 950.85 251.27 952.54 243.73 955.37 236.56 Z" />
<path fill="#45224c" stroke="#45224c" d=" M 653.93 241.07 L 654.69 241.35 C 657.64 242.48 660.60 243.62 663.62 244.58 C 734.10 269.01 804.56 293.50 875.02 317.98 C 892.02 324.31 909.44 329.45 926.31 336.13 C 903.66 356.89 880.31 376.90 857.48 397.47 C 828.31 423.31 799.21 449.22 770.04 475.05 C 762.52 481.43 755.64 488.56 747.72 494.45 C 742.76 483.00 739.05 471.05 734.49 459.43 C 707.79 386.81 680.71 314.31 654.14 241.65 L 653.93 241.07 Z" />
<path fill="#8c2543" stroke="#8c2543" d=" M 641.43 246.47 C 645.26 244.70 649.15 243.06 653.23 241.95 C 638.77 277.34 623.58 312.42 608.79 347.68 C 576.94 423.20 545.24 498.80 513.31 574.29 C 506.63 589.87 500.24 605.57 493.66 621.19 L 492.99 621.44 C 462.95 547.38 432.81 473.35 402.68 399.32 C 396.79 385.47 391.83 371.20 385.33 357.61 L 385.05 357.15 C 396.21 352.83 407.03 347.71 418.07 343.09 C 492.53 310.90 566.95 278.61 641.43 246.47 Z" />
<path fill="#6e2049" stroke="#6e2049" d=" M 653.23 241.95 L 654.14 241.65 C 680.71 314.31 707.79 386.81 734.49 459.43 C 739.05 471.05 742.76 483.00 747.72 494.45 L 747.96 494.87 C 747.83 495.11 747.57 495.57 747.44 495.80 C 743.33 496.94 739.45 498.72 735.72 500.76 C 665.08 536.10 594.39 571.33 523.73 606.63 C 514.18 611.86 503.92 615.65 494.57 621.23 L 493.66 621.19 C 500.24 605.57 506.63 589.87 513.31 574.29 C 545.24 498.80 576.94 423.20 608.79 347.68 C 623.58 312.42 638.77 277.34 653.23 241.95 Z" />
<path fill="#2e4478" stroke="#2e4478" d=" M 1154.03 284.02 C 1153.91 278.47 1153.34 272.80 1155.00 267.39 L 1155.00 780.46 C 1153.01 774.30 1152.81 767.79 1151.30 761.53 C 1149.73 768.56 1150.94 775.82 1150.65 782.96 C 1150.34 797.98 1151.54 812.95 1151.52 827.97 C 1151.55 840.28 1151.71 852.59 1151.60 864.90 C 1150.55 865.01 1149.52 865.05 1148.49 865.01 C 1144.60 844.11 1142.17 822.96 1138.85 801.97 C 1131.69 754.04 1124.68 706.08 1117.56 658.14 C 1117.25 655.95 1117.03 653.75 1116.87 651.56 C 1117.77 648.17 1118.34 644.70 1118.26 641.20 C 1118.24 633.82 1119.71 626.57 1120.30 619.25 C 1120.80 614.93 1121.81 610.63 1121.52 606.26 C 1121.02 600.53 1122.88 594.93 1122.47 589.20 C 1122.00 584.05 1124.81 579.30 1124.35 574.16 C 1124.20 569.44 1124.46 564.71 1125.08 560.03 C 1126.38 552.00 1126.97 543.86 1127.40 535.75 C 1128.90 528.01 1127.88 520.07 1129.38 512.32 C 1129.59 504.95 1130.10 497.60 1131.15 490.30 C 1130.57 484.00 1133.36 477.97 1132.05 471.69 C 1132.63 471.90 1133.22 472.12 1133.82 472.35 C 1133.36 466.45 1132.68 460.46 1134.37 454.66 C 1134.81 442.97 1136.09 431.31 1136.78 419.62 C 1137.83 411.71 1137.39 403.57 1139.72 395.87 C 1140.67 392.61 1139.06 389.29 1139.66 385.99 C 1140.88 377.04 1141.42 368.03 1142.07 359.03 C 1141.98 355.87 1142.41 352.71 1143.68 349.78 C 1144.21 361.17 1143.70 372.60 1144.78 383.96 C 1145.48 398.90 1144.43 413.90 1145.68 428.82 C 1146.51 440.58 1145.71 452.40 1146.37 464.17 C 1149.69 461.60 1149.68 457.05 1150.33 453.28 C 1151.39 444.64 1149.13 435.73 1151.58 427.26 C 1151.95 425.60 1151.88 423.89 1151.53 422.23 C 1150.87 419.24 1151.97 416.29 1152.78 413.45 C 1154.33 408.44 1153.70 403.14 1153.77 397.98 C 1153.87 360.00 1153.80 322.01 1154.03 284.02 Z" />
<path fill="#94472a" stroke="#94472a" d=" M 0.00 270.37 C 9.22 329.92 18.30 389.50 27.15 449.10 C 27.28 450.20 27.42 451.31 27.48 452.43 C 27.32 453.98 27.09 455.53 26.90 457.09 C 22.78 502.45 17.78 547.75 13.37 593.09 C 9.91 627.09 6.53 661.09 3.06 695.09 C 2.12 703.67 1.64 712.31 0.00 720.81 L 0.00 270.37 Z" />
<path fill="#444583" stroke="#444583" d=" M 927.56 336.00 C 947.49 328.92 967.51 322.06 987.45 314.98 C 999.77 323.96 1011.66 333.52 1023.74 342.82 C 1021.48 346.29 1017.97 349.12 1013.79 349.77 C 1011.03 349.89 1008.39 348.95 1005.70 348.54 C 1006.36 350.37 1008.28 350.92 1009.86 351.72 C 1005.59 354.17 1000.93 355.82 996.61 358.17 C 980.37 353.29 964.28 347.94 948.11 342.85 C 941.26 340.56 934.22 338.82 927.56 336.00 Z" />
<path fill="#3e2963" stroke="#3e2963" d=" M 926.31 336.13 L 926.76 335.68 C 927.65 347.39 926.69 359.14 927.32 370.86 C 929.09 392.53 927.01 414.33 928.93 435.99 C 929.21 455.00 928.31 474.05 929.87 493.01 C 930.00 508.35 929.94 523.69 929.98 539.04 C 931.53 557.64 930.75 576.34 930.83 594.99 C 869.87 561.63 809.00 528.08 747.96 494.87 L 747.72 494.45 C 755.64 488.56 762.52 481.43 770.04 475.05 C 799.21 449.22 828.31 423.31 857.48 397.47 C 880.31 376.90 903.66 356.89 926.31 336.13 Z" />
<path fill="#38306d" stroke="#38306d" d=" M 926.76 335.68 L 927.56 336.00 C 934.22 338.82 941.26 340.56 948.11 342.85 C 964.28 347.94 980.37 353.29 996.61 358.17 C 1021.18 365.97 1045.76 373.79 1070.32 381.65 C 1071.91 382.12 1073.57 382.43 1075.23 382.73 C 1075.69 382.82 1076.62 383.01 1077.08 383.10 C 1077.20 383.46 1077.44 384.18 1077.56 384.54 C 1073.40 388.23 1071.03 393.33 1067.71 397.69 C 1039.02 439.05 1010.70 480.66 981.94 521.97 C 970.09 539.44 957.90 556.66 946.19 574.22 C 941.30 581.30 936.10 588.16 931.59 595.49 L 930.78 596.02 L 930.83 594.99 C 930.75 576.34 931.53 557.64 929.98 539.04 C 929.94 523.69 930.00 508.35 929.87 493.01 C 928.31 474.05 929.21 455.00 928.93 435.99 C 927.01 414.33 929.09 392.53 927.32 370.86 C 926.69 359.14 927.65 347.39 926.76 335.68 Z" />
<path fill="#424a8a" stroke="#424a8a" d=" M 1013.79 349.77 C 1017.97 349.12 1021.48 346.29 1023.74 342.82 C 1040.83 356.22 1058.31 369.11 1075.23 382.73 C 1073.57 382.43 1071.91 382.12 1070.32 381.65 C 1045.76 373.79 1021.18 365.97 996.61 358.17 C 1000.93 355.82 1005.59 354.17 1009.86 351.72 C 1008.28 350.92 1006.36 350.37 1005.70 348.54 C 1008.39 348.95 1011.03 349.89 1013.79 349.77 Z" />
<path fill="#9a4250" stroke="#9a4250" d=" M 257.58 426.22 C 300.32 403.65 342.59 380.19 385.33 357.61 C 391.83 371.20 396.79 385.47 402.68 399.32 C 432.81 473.35 462.95 547.38 492.99 621.44 C 489.42 618.51 485.94 615.44 482.17 612.76 C 411.92 554.05 341.56 495.47 271.34 436.71 C 266.88 433.38 263.07 429.16 258.13 426.49 L 257.58 426.22 Z" />
<path fill="#8d2f38" stroke="#8d2f38" d=" M 77.97 396.00 C 84.90 388.50 91.33 380.53 98.94 373.69 C 100.18 374.10 101.43 374.52 102.67 374.95 C 107.75 378.93 113.72 381.50 119.30 384.67 C 157.99 405.68 196.69 426.67 235.32 447.79 C 238.22 449.32 241.18 450.75 244.19 452.07 L 244.00 452.42 C 171.82 452.34 99.65 452.30 27.48 452.43 C 27.42 451.31 27.28 450.20 27.15 449.10 C 27.71 449.62 28.26 450.14 28.82 450.66 C 45.43 432.67 61.63 414.26 77.97 396.00 Z" />
<path fill="#833e45" stroke="#833e45" d=" M 102.67 374.95 C 118.31 379.38 133.60 384.99 149.12 389.86 C 177.90 399.37 206.67 408.93 235.46 418.43 C 242.13 420.53 248.87 422.46 255.30 425.26 C 256.06 425.56 256.82 425.88 257.58 426.22 L 258.13 426.49 C 253.24 434.88 249.00 443.64 244.19 452.07 C 241.18 450.75 238.22 449.32 235.32 447.79 C 196.69 426.67 157.99 405.68 119.30 384.67 C 113.72 381.50 107.75 378.93 102.67 374.95 Z" />
<path fill="#303777" stroke="#303777" d=" M 1067.71 397.69 C 1071.03 393.33 1073.40 388.23 1077.56 384.54 C 1078.19 387.10 1078.64 389.71 1078.83 392.35 C 1077.16 396.38 1077.81 400.76 1078.05 404.98 C 1082.47 535.30 1086.93 665.63 1091.37 795.93 L 1090.42 796.19 C 1078.81 780.37 1066.56 765.02 1054.24 749.76 C 1033.00 722.70 1011.45 695.90 990.12 668.91 C 970.60 644.44 951.43 619.70 931.59 595.49 C 936.10 588.16 941.30 581.30 946.19 574.22 C 957.90 556.66 970.09 539.44 981.94 521.97 C 1010.70 480.66 1039.02 439.05 1067.71 397.69 Z" />
<path fill="#33579d" stroke="#33579d" d=" M 1078.05 404.98 C 1077.81 400.76 1077.16 396.38 1078.83 392.35 C 1081.71 415.26 1085.62 438.04 1088.67 460.94 C 1097.95 524.50 1107.46 588.02 1116.87 651.56 C 1117.03 653.75 1117.25 655.95 1117.56 658.14 C 1124.68 706.08 1131.69 754.04 1138.85 801.97 C 1142.17 822.96 1144.60 844.11 1148.49 865.01 C 1149.52 865.05 1150.55 865.01 1151.60 864.90 C 1151.71 852.59 1151.55 840.28 1151.52 827.97 C 1151.54 812.95 1150.34 797.98 1150.65 782.96 C 1150.94 775.82 1149.73 768.56 1151.30 761.53 C 1152.81 767.79 1153.01 774.30 1155.00 780.46 L 1155.00 866.00 L 1110.52 866.00 C 1104.65 845.25 1099.12 824.41 1093.27 803.65 C 1092.55 801.09 1091.82 798.54 1091.37 795.93 C 1086.93 665.63 1082.47 535.30 1078.05 404.98 Z" />
<path fill="#9e5958" stroke="#9e5958" d=" M 244.19 452.07 C 249.00 443.64 253.24 434.88 258.13 426.49 C 263.07 429.16 266.88 433.38 271.34 436.71 C 341.56 495.47 411.92 554.05 482.17 612.76 C 479.16 611.69 476.47 609.96 473.93 608.06 C 428.24 577.04 382.49 546.12 336.68 515.28 C 309.37 496.53 281.81 478.15 254.30 459.69 C 251.34 457.52 248.15 455.69 244.89 454.00 L 243.82 453.37 L 244.00 452.42 L 244.19 452.07 Z" />
<path fill="#b55f3b" stroke="#b55f3b" d=" M 26.90 457.09 C 27.09 455.53 27.32 453.98 27.48 452.43 C 99.65 452.30 171.82 452.34 244.00 452.42 L 243.82 453.37 C 240.34 473.43 236.11 493.35 232.48 513.38 C 217.46 591.72 202.73 670.12 187.57 748.42 C 184.70 745.33 183.18 741.35 181.16 737.73 C 130.40 643.04 79.50 548.42 28.65 453.79 C 28.03 454.87 27.42 455.95 26.90 457.09 Z" />
<path fill="#c77e33" stroke="#c77e33" d=" M 26.90 457.09 C 27.42 455.95 28.03 454.87 28.65 453.79 C 79.50 548.42 130.40 643.04 181.16 737.73 C 183.18 741.35 184.70 745.33 187.57 748.42 L 188.10 748.94 C 187.62 749.39 187.16 749.85 186.70 750.34 C 185.52 750.56 184.32 750.75 183.19 751.17 C 148.43 767.99 113.90 785.29 79.19 802.23 C 75.68 804.04 71.88 805.36 68.57 807.56 C 67.19 809.03 66.31 810.88 65.32 812.64 C 61.80 819.26 57.93 825.69 54.05 832.10 C 47.23 843.34 41.14 855.02 33.89 866.00 L 0.00 866.00 L 0.00 720.81 C 1.64 712.31 2.12 703.67 3.06 695.09 C 6.53 661.09 9.91 627.09 13.37 593.09 C 17.78 547.75 22.78 502.45 26.90 457.09 Z" />
<path fill="#b06c47" stroke="#b06c47" d=" M 243.82 453.37 L 244.89 454.00 C 248.44 473.79 252.82 493.42 256.83 513.12 C 268.19 568.78 279.77 624.39 290.94 680.08 C 256.27 702.54 222.21 725.94 187.57 748.42 C 202.73 670.12 217.46 591.72 232.48 513.38 C 236.11 493.35 240.34 473.43 243.82 453.37 Z" />
<path fill="#a34a4d" stroke="#a34a4d" d=" M 244.89 454.00 C 248.15 455.69 251.34 457.52 254.30 459.69 C 281.81 478.15 309.37 496.53 336.68 515.28 C 382.49 546.12 428.24 577.04 473.93 608.06 C 476.47 609.96 479.16 611.69 482.17 612.76 C 485.94 615.44 489.42 618.51 492.99 621.44 C 474.39 627.27 455.57 632.38 436.87 637.85 C 388.49 651.93 340.01 665.65 291.67 679.86 L 290.94 680.08 C 279.77 624.39 268.19 568.78 256.83 513.12 C 252.82 493.42 248.44 473.79 244.89 454.00 Z" />
<path fill="#6b488b" stroke="#6b488b" d=" M 747.96 494.87 C 809.00 528.08 869.87 561.63 930.83 594.99 L 930.78 596.02 C 930.51 596.20 929.97 596.57 929.70 596.75 C 924.00 596.31 918.48 598.08 912.92 599.00 C 847.91 611.09 783.01 623.75 718.03 636.03 C 715.42 636.53 712.82 637.09 710.23 637.68 C 722.31 590.31 735.28 543.16 747.44 495.80 C 747.57 495.57 747.83 495.11 747.96 494.87 Z" />
<path fill="#762257" stroke="#762257" d=" M 735.72 500.76 C 739.45 498.72 743.33 496.94 747.44 495.80 C 735.28 543.16 722.31 590.31 710.23 637.68 C 702.13 637.70 694.08 636.79 686.02 636.11 C 638.01 632.61 590.02 628.81 542.02 625.19 C 526.20 623.84 510.36 622.82 494.57 621.23 C 503.92 615.65 514.18 611.86 523.73 606.63 C 594.39 571.33 665.08 536.10 735.72 500.76 Z" />
<path fill="#6e5386" stroke="#6e5386" d=" M 912.92 599.00 C 918.48 598.08 924.00 596.31 929.70 596.75 C 897.19 629.89 864.27 662.61 831.57 695.56 C 798.81 728.45 766.18 761.49 733.44 794.41 C 724.22 803.51 715.32 812.95 705.87 821.82 C 705.54 820.57 705.40 819.31 705.47 818.04 C 705.79 800.36 706.68 782.71 706.73 765.03 C 707.54 751.70 707.47 738.34 707.79 725.00 C 708.57 711.00 708.47 696.97 708.84 682.96 C 709.76 667.88 709.27 652.76 710.23 637.68 C 712.82 637.09 715.42 636.53 718.03 636.03 C 783.01 623.75 847.91 611.09 912.92 599.00 Z" />
<path fill="#302d65" stroke="#302d65" d=" M 929.70 596.75 C 929.97 596.57 930.51 596.20 930.78 596.02 L 931.59 595.49 C 951.43 619.70 970.60 644.44 990.12 668.91 C 1011.45 695.90 1033.00 722.70 1054.24 749.76 C 1066.56 765.02 1078.81 780.37 1090.42 796.19 C 1085.11 798.12 1079.38 797.16 1073.89 797.96 C 1048.83 799.58 1023.76 801.08 998.71 802.85 C 990.13 803.48 981.56 804.25 972.97 804.45 C 943.47 806.88 913.91 808.28 884.40 810.59 C 859.46 812.11 834.53 813.83 809.61 815.56 C 780.39 817.24 751.22 819.78 721.98 821.16 C 716.96 821.53 711.94 821.85 706.94 822.28 L 705.87 821.82 C 715.32 812.95 724.22 803.51 733.44 794.41 C 766.18 761.49 798.81 728.45 831.57 695.56 C 864.27 662.61 897.19 629.89 929.70 596.75 Z" />
<path fill="#98393c" stroke="#98393c" d=" M 492.99 621.44 L 493.66 621.19 C 494.10 622.01 494.56 622.83 495.01 623.67 C 497.15 630.64 500.24 637.26 503.01 643.99 C 533.67 718.00 564.28 792.02 595.00 866.00 L 524.99 866.00 C 520.74 863.80 517.30 860.42 513.57 857.49 C 455.60 811.09 397.61 764.74 339.59 718.40 C 323.65 705.52 307.44 692.96 291.67 679.86 C 340.01 665.65 388.49 651.93 436.87 637.85 C 455.57 632.38 474.39 627.27 492.99 621.44 Z" />
<path fill="#8a214f" stroke="#8a214f" d=" M 493.66 621.19 L 494.57 621.23 C 510.36 622.82 526.20 623.84 542.02 625.19 C 590.02 628.81 638.01 632.61 686.02 636.11 C 694.08 636.79 702.13 637.70 710.23 637.68 C 709.27 652.76 709.76 667.88 708.84 682.96 C 708.47 696.97 708.57 711.00 707.79 725.00 C 707.47 738.34 707.54 751.70 706.73 765.03 C 706.68 782.71 705.79 800.36 705.47 818.04 C 705.40 819.31 705.54 820.57 705.87 821.82 L 706.94 822.28 C 706.61 822.31 705.95 822.36 705.62 822.38 L 705.00 822.39 C 698.12 815.15 691.14 807.96 683.50 801.53 C 677.67 796.31 672.64 790.27 666.61 785.28 C 659.66 779.57 653.95 772.54 647.01 766.82 C 640.46 761.39 635.08 754.74 628.54 749.31 C 621.31 743.25 615.21 736.00 608.03 729.89 C 600.83 723.78 594.71 716.53 587.47 710.47 C 581.00 704.99 575.59 698.38 569.04 692.99 C 562.65 687.74 557.46 681.22 551.03 676.01 C 544.26 670.45 538.74 663.56 531.98 658.00 C 525.04 652.29 519.44 645.16 512.42 639.54 C 506.25 634.64 501.66 627.98 495.01 623.67 C 494.56 622.83 494.10 622.01 493.66 621.19 Z" />
<path fill="#852041" stroke="#852041" d=" M 495.01 623.67 C 501.66 627.98 506.25 634.64 512.42 639.54 C 519.44 645.16 525.04 652.29 531.98 658.00 C 538.74 663.56 544.26 670.45 551.03 676.01 C 557.46 681.22 562.65 687.74 569.04 692.99 C 575.59 698.38 581.00 704.99 587.47 710.47 C 594.71 716.53 600.83 723.78 608.03 729.89 C 615.21 736.00 621.31 743.25 628.54 749.31 C 635.08 754.74 640.46 761.39 647.01 766.82 C 653.95 772.54 659.66 779.57 666.61 785.28 C 672.64 790.27 677.67 796.31 683.50 801.53 C 691.14 807.96 698.12 815.15 705.00 822.39 C 697.05 837.20 687.45 851.09 679.70 866.00 L 595.00 866.00 C 564.28 792.02 533.67 718.00 503.01 643.99 C 500.24 637.26 497.15 630.64 495.01 623.67 Z" />
<path fill="#b25e34" stroke="#b25e34" d=" M 187.57 748.42 C 222.21 725.94 256.27 702.54 290.94 680.08 L 291.67 679.86 C 307.44 692.96 323.65 705.52 339.59 718.40 C 397.61 764.74 455.60 811.09 513.57 857.49 C 517.30 860.42 520.74 863.80 524.99 866.00 L 445.53 866.00 C 391.61 841.37 337.68 816.75 283.72 792.22 C 271.24 786.87 259.13 780.71 246.66 775.36 C 227.10 766.65 207.84 757.22 188.10 748.94 L 187.57 748.42 Z" />
<path fill="#af6e31" stroke="#af6e31" d=" M 186.70 750.34 C 187.16 749.85 187.62 749.39 188.10 748.94 C 207.84 757.22 227.10 766.65 246.66 775.36 C 259.13 780.71 271.24 786.87 283.72 792.22 C 337.68 816.75 391.61 841.37 445.53 866.00 L 121.89 866.00 C 143.35 827.37 165.03 788.85 186.70 750.34 Z" />
<path fill="#dca033" stroke="#dca033" d=" M 183.19 751.17 C 184.32 750.75 185.52 750.56 186.70 750.34 C 165.03 788.85 143.35 827.37 121.89 866.00 L 33.89 866.00 C 41.14 855.02 47.23 843.34 54.05 832.10 C 57.93 825.69 61.80 819.26 65.32 812.64 C 66.31 810.88 67.19 809.03 68.57 807.56 C 71.88 805.36 75.68 804.04 79.19 802.23 C 113.90 785.29 148.43 767.99 183.19 751.17 Z" />
<path fill="#302c59" stroke="#302c59" d=" M 1073.89 797.96 C 1079.38 797.16 1085.11 798.12 1090.42 796.19 L 1091.37 795.93 C 1091.82 798.54 1092.55 801.09 1093.27 803.65 C 1099.12 824.41 1104.65 845.25 1110.52 866.00 L 824.35 866.00 C 784.86 851.23 745.20 836.91 705.62 822.38 C 705.95 822.36 706.61 822.31 706.94 822.28 C 711.94 821.85 716.96 821.53 721.98 821.16 C 751.22 819.78 780.39 817.24 809.61 815.56 C 834.53 813.83 859.46 812.11 884.40 810.59 C 913.91 808.28 943.47 806.88 972.97 804.45 C 981.56 804.25 990.13 803.48 998.71 802.85 C 1023.76 801.08 1048.83 799.58 1073.89 797.96 Z" />
<path fill="#4b1e36" stroke="#4b1e36" d=" M 705.00 822.39 L 705.62 822.38 C 745.20 836.91 784.86 851.23 824.35 866.00 L 679.70 866.00 C 687.45 851.09 697.05 837.20 705.00 822.39 Z" />
</svg>
